<svg width="414" height="362" viewBox="0 0 414 362" fill="none" xmlns="http://www.w3.org/2000/svg">
<path d="M455.336 397.096L130.174 209.381C124.616 206.17 115.55 206.183 109.992 209.381L-73.3256 315.245C-80.8569 319.591 -80.8698 326.709 -73.3256 331.055L249.424 517.378C252.183 518.774 255.231 519.501 258.323 519.501C261.414 519.501 264.463 518.774 267.221 517.378L455.336 408.754C460.894 405.543 460.894 400.307 455.336 397.096Z" fill="#3A3A3C"/>
<path d="M160.171 109.681L440.635 367.525C447.676 373.973 446.399 380.667 445.342 386.637C444.284 392.608 440.66 400.759 434.058 404.627L264.964 502.199C258.362 506.003 248.87 505.294 243.776 500.613L-36.6749 242.769C-41.8333 238.088 -41.8333 230.866 -40.7758 224.882C-39.7184 218.898 -36.7136 209.549 -30.0979 205.731L138.97 108.108C145.598 104.291 153.078 103.156 160.171 109.681Z" fill="#37474F"/>
<path d="M150.976 117.329L-22.9019 217.712L258.774 476.6L253.809 504.598C250.117 504.412 246.59 503.011 243.776 500.613L-36.6749 242.769C-41.8333 238.087 -41.8333 230.866 -40.7758 224.882C-39.7184 218.898 -36.7136 209.548 -30.0979 205.731L138.97 108.108C143.096 105.722 147.997 104.123 153.039 105.529L152.897 106.393L150.976 117.329Z" fill="#263238"/>
<path d="M437.63 368.905L157.656 111.5C153.607 107.786 146.05 107.231 140.801 110.21L-24.2689 205.525C-31.3746 209.613 -32.7029 217.131 -27.235 222.122L251.011 477.954C254.57 481.217 261.263 481.72 265.88 479.038L435.463 381.144C440.738 378.126 441.679 372.619 437.63 368.905Z" fill="#455A64"/>
<path d="M49.3548 299.189C50.4249 300.41 51.2112 301.852 51.6572 303.413C52.1031 304.974 52.1977 306.614 51.934 308.216C51.888 308.806 51.7129 309.379 51.4209 309.894C51.129 310.409 50.7274 310.853 50.2446 311.195C49.6772 311.505 47.5236 312.794 46.9433 313.117C46.4495 313.348 45.8929 313.409 45.3608 313.29C44.8287 313.171 44.3511 312.879 44.0029 312.459L21.7185 291.967C20.6461 290.748 19.8583 289.305 19.4122 287.744C18.9661 286.183 18.8729 284.542 19.1393 282.94C19.1921 282.372 19.36 281.821 19.6327 281.32C19.9054 280.819 20.2772 280.378 20.7255 280.025C21.3188 279.651 23.5498 278.375 24.1301 278.039C24.6239 277.808 25.1804 277.747 25.7125 277.866C26.2446 277.985 26.7222 278.278 27.0704 278.697L49.3548 299.189Z" fill="#455A64"/>
<path d="M46.1179 301.085L23.8206 280.593C21.8088 278.749 19.7325 279.793 19.178 282.94C18.9143 284.542 19.0089 286.182 19.4549 287.743C19.9008 289.304 20.6871 290.747 21.7572 291.967L44.0545 312.459C46.0663 314.303 48.1426 313.259 48.6971 310.112C48.9672 308.51 48.8758 306.868 48.4295 305.306C47.9833 303.745 47.1934 302.302 46.1179 301.085V301.085Z" fill="#37474F"/>
<path d="M10.3313 263.325C11.4045 264.544 12.1928 265.986 12.639 267.548C13.0851 269.109 13.1779 270.751 12.9105 272.352C12.8612 272.941 12.6832 273.512 12.3891 274.025C12.0949 274.537 11.6918 274.979 11.2083 275.318L7.90687 277.253C7.41419 277.479 6.86101 277.537 6.3322 277.418C5.80339 277.299 5.32817 277.01 4.97946 276.595L-17.2663 256.103C-18.3371 254.883 -19.1239 253.44 -19.5699 251.879C-20.0159 250.318 -20.1101 248.678 -19.8455 247.076C-19.8092 246.515 -19.6589 245.967 -19.4039 245.466C-19.149 244.965 -18.7946 244.521 -18.3624 244.162C-17.7692 243.788 -15.5382 242.498 -14.9579 242.176C-14.4654 241.943 -13.9098 241.88 -13.3778 241.997C-12.8458 242.113 -12.3674 242.403 -12.0176 242.82L10.3313 263.325Z" fill="#455A64"/>
<path d="M7.04278 265.221L-15.2545 244.716C-17.2534 242.872 -19.3426 243.916 -19.8971 247.05C-20.1617 248.652 -20.0676 250.293 -19.6216 251.854C-19.1756 253.415 -18.3888 254.857 -17.3179 256.077L4.97941 276.569C6.9783 278.413 9.05457 277.356 9.62199 274.222C9.88534 272.625 9.79057 270.988 9.34454 269.432C8.8985 267.875 8.11232 266.437 7.04278 265.221V265.221Z" fill="#37474F"/>
<path d="M162.183 125.376L423.612 365.746C427.481 369.292 426.552 374.541 421.548 377.352L268.085 465.935C263.094 468.837 255.911 468.308 252.03 464.749L-11.2438 222.793C-11.9631 222.204 -12.5481 221.467 -12.9598 220.634C-13.3715 219.8 -13.6002 218.888 -13.6308 217.959C-13.6613 217.03 -13.4929 216.105 -13.1368 215.246C-12.7808 214.387 -12.2453 213.614 -11.5662 212.979C-11.3341 212.747 -11.1277 212.527 -10.8827 212.308C-10.3505 211.864 -9.78093 211.468 -9.18044 211.122L33.9827 186.207L36.7941 184.582C37.5676 184.144 38.4536 183.946 39.3398 184.013C40.226 184.079 41.0725 184.407 41.7719 184.956C42.5124 185.498 43.3957 185.812 44.3125 185.858C45.2294 185.904 46.1395 185.68 46.9304 185.214L97.2251 156.172C98.8629 155.217 99.2627 153.592 98.0633 152.458C97.8255 152.193 97.6509 151.878 97.5525 151.537C97.4541 151.195 97.4346 150.836 97.4955 150.486C97.5563 150.135 97.6959 149.804 97.9038 149.515C98.1116 149.227 98.3822 148.989 98.6952 148.821L140.917 124.447L141.807 123.931C148.152 120.217 157.295 120.914 162.183 125.376Z" fill="black"/>
<path d="M40.4952 192.074C39.7944 191.528 38.9473 191.202 38.0611 191.138C37.1749 191.074 36.2896 191.274 35.5173 191.713L32.706 193.338L-10.4572 218.253C-11.0577 218.599 -11.6272 218.996 -12.1594 219.44C-12.4045 219.646 -12.6108 219.878 -12.8429 220.097C-13.0751 220.317 -12.959 220.265 -13.0364 220.343C-12.6042 221.268 -11.9953 222.101 -11.2438 222.793L252.068 464.813C255.937 468.373 263.133 468.901 268.124 466L421.587 377.417C422.552 376.872 423.423 376.175 424.166 375.353C423.736 374.438 423.126 373.618 422.374 372.942L160.893 132.52C156.031 128.032 146.888 127.362 140.569 130.998L139.679 131.527L98.5663 155.256L97.483 161.343C97.3845 161.75 97.2 162.13 96.942 162.459C96.6839 162.789 96.3583 163.059 95.987 163.252L45.6924 192.281C44.9033 192.766 43.9879 193.005 43.0624 192.968C42.1369 192.932 41.2433 192.62 40.4952 192.074V192.074Z" fill="#263238"/>
<path d="M108.251 202.817L105.788 200.56C105.332 200.164 104.769 199.913 104.17 199.837C103.571 199.762 102.962 199.865 102.422 200.134L99.1079 202.043C98.8833 202.156 98.6916 202.324 98.5515 202.533C98.4114 202.741 98.3275 202.982 98.308 203.233C98.2886 203.483 98.3342 203.734 98.4404 203.962C98.5467 204.19 98.71 204.386 98.9144 204.532L101.378 206.789C101.206 206.875 101.059 207.005 100.952 207.164C100.845 207.324 100.78 207.508 100.765 207.7C100.749 207.891 100.783 208.084 100.863 208.258C100.944 208.433 101.067 208.584 101.223 208.697L106.188 213.25C106.536 213.555 106.967 213.75 107.426 213.81C107.886 213.87 108.352 213.791 108.767 213.585L115.705 209.587C115.876 209.499 116.021 209.369 116.127 209.209C116.233 209.049 116.297 208.864 116.311 208.673C116.325 208.481 116.29 208.289 116.209 208.115C116.127 207.941 116.003 207.791 115.847 207.679L110.895 203.126C110.537 202.813 110.093 202.616 109.621 202.561C109.149 202.505 108.671 202.595 108.251 202.817ZM99.6624 204.106C99.5475 204.022 99.4558 203.911 99.396 203.782C99.3362 203.653 99.3102 203.51 99.3205 203.368C99.3308 203.227 99.3771 203.09 99.455 202.971C99.5328 202.851 99.6397 202.754 99.7656 202.688L103.08 200.779C103.388 200.623 103.736 200.563 104.078 200.607C104.421 200.651 104.742 200.796 105.001 201.024L107.465 203.281L102.113 206.363L99.6624 204.106Z" fill="#FAFAFA"/>
<path d="M122.798 275.061C123.327 275.551 123.249 276.002 122.566 276.35L121.663 276.866C121.392 277.065 121.059 277.161 120.724 277.138C120.388 277.114 120.072 276.972 119.832 276.737L98.1923 256.838L94.7619 266.304C94.5169 266.923 93.9881 267.155 93.1628 267.013L92.1311 266.846C91.8161 266.809 91.524 266.663 91.3057 266.433C91.2207 266.335 91.1657 266.215 91.1474 266.087C91.1291 265.959 91.1482 265.828 91.2026 265.711L95.2777 254.44C95.3587 254.226 95.4917 254.035 95.6646 253.885C95.8499 253.744 96.0437 253.615 96.2449 253.498L97.1348 252.982C97.4093 252.784 97.7452 252.69 98.0828 252.716C98.4205 252.741 98.738 252.886 98.9789 253.124L122.798 275.061Z" fill="#FAFAFA"/>
<path d="M112.094 255.149C111.293 254.357 110.642 253.426 110.173 252.402C109.688 251.364 109.483 250.217 109.58 249.075C109.721 247.806 110.192 246.597 110.946 245.567C111.98 244.194 113.3 243.063 114.815 242.253C116.418 241.3 118.158 240.6 119.974 240.177C121.524 239.848 123.116 239.756 124.694 239.906C126.116 240.06 127.502 240.452 128.795 241.066C129.993 241.654 131.104 242.404 132.096 243.297C133.448 244.442 134.4 245.987 134.817 247.708C135.115 249.551 135.023 251.435 134.546 253.24L132.186 267.542L147.997 258.437C148.283 258.231 148.632 258.132 148.984 258.158C149.335 258.184 149.666 258.333 149.918 258.579L150.46 259.082C151.002 259.572 150.899 260.024 150.176 260.436L130.832 271.591C130.556 271.785 130.221 271.876 129.885 271.851C129.548 271.825 129.232 271.683 128.988 271.45L128.446 270.947C128.212 270.737 128.054 270.456 127.995 270.147C127.945 269.715 127.98 269.277 128.098 268.857L130.884 253.163C131.103 252.238 131.258 251.298 131.348 250.352C131.407 249.64 131.364 248.923 131.219 248.224C131.087 247.614 130.837 247.036 130.484 246.521C129.677 245.395 128.638 244.456 127.437 243.766C126.235 243.076 124.9 242.652 123.52 242.524C121.213 242.417 118.928 243.015 116.969 244.239C114.802 245.529 113.577 246.908 113.319 248.495C113.211 249.357 113.296 250.232 113.568 251.058C113.84 251.883 114.293 252.637 114.893 253.266C114.999 253.375 115.073 253.51 115.107 253.658C115.141 253.806 115.134 253.96 115.086 254.104C115.007 254.334 114.852 254.529 114.648 254.659L113.706 255.201C113.472 255.376 113.184 255.467 112.891 255.458C112.598 255.448 112.317 255.34 112.094 255.149Z" fill="#FAFAFA"/>
<path d="M148.126 241.415C148.232 241.496 148.314 241.606 148.362 241.731C148.41 241.856 148.422 241.992 148.397 242.124C148.353 242.265 148.281 242.396 148.186 242.509C148.091 242.622 147.974 242.715 147.842 242.782L145.572 244.071C145.3 244.269 144.966 244.363 144.631 244.337C144.295 244.311 143.98 244.166 143.741 243.929L142 242.33C141.891 242.247 141.805 242.136 141.751 242.01C141.696 241.883 141.676 241.745 141.691 241.608C141.717 241.468 141.776 241.337 141.864 241.225C141.951 241.112 142.064 241.023 142.194 240.963L144.463 239.674C144.767 239.495 145.118 239.414 145.469 239.442C145.809 239.454 146.134 239.586 146.385 239.816L148.126 241.415ZM160.893 253.099C160.997 253.182 161.077 253.292 161.125 253.416C161.173 253.541 161.186 253.676 161.164 253.808C161.121 253.951 161.049 254.084 160.951 254.198C160.853 254.311 160.732 254.402 160.596 254.466L158.34 255.755C158.067 255.952 157.733 256.047 157.398 256.021C157.062 255.995 156.747 255.85 156.508 255.613L154.767 254.014C154.658 253.93 154.572 253.819 154.516 253.693C154.459 253.568 154.435 253.43 154.445 253.292C154.476 253.152 154.539 253.022 154.628 252.91C154.718 252.798 154.831 252.708 154.961 252.647L157.218 251.358C157.526 251.18 157.881 251.099 158.236 251.125C158.572 251.14 158.891 251.273 159.139 251.499L160.893 253.099Z" fill="#FAFAFA"/>
<path d="M161.912 215.622C162.198 215.418 162.547 215.321 162.898 215.347C163.249 215.373 163.58 215.52 163.833 215.764L164.375 216.267C164.507 216.376 164.598 216.526 164.633 216.693C164.652 216.834 164.652 216.977 164.633 217.118L163.679 231.098L164.62 230.556C166.146 229.662 167.768 228.944 169.456 228.415C170.987 227.929 172.583 227.677 174.189 227.667C175.708 227.667 177.214 227.937 178.638 228.467C180.098 229.035 181.438 229.875 182.584 230.943C183.686 231.858 184.523 233.052 185.009 234.399C185.37 235.549 185.37 236.783 185.009 237.933C184.581 239.219 183.861 240.388 182.907 241.35C181.744 242.554 180.41 243.58 178.947 244.394C177.304 245.361 175.545 246.115 173.712 246.638C172.116 247.088 170.469 247.335 168.811 247.373C167.391 247.402 165.974 247.219 164.607 246.831C163.462 246.506 162.399 245.944 161.486 245.18C161.388 245.111 161.313 245.013 161.272 244.9C161.23 244.788 161.224 244.665 161.254 244.548C161.351 244.298 161.54 244.095 161.783 243.981L162.44 243.594C162.713 243.446 163.01 243.35 163.317 243.31C163.771 243.272 164.225 243.385 164.607 243.633C165.591 244.199 166.679 244.563 167.805 244.703C168.87 244.821 169.947 244.79 171.003 244.613C172.058 244.445 173.089 244.151 174.073 243.736C175.021 243.371 175.944 242.94 176.833 242.446C177.931 241.836 178.945 241.086 179.85 240.215C180.565 239.541 181.117 238.711 181.462 237.791C181.748 236.955 181.748 236.048 181.462 235.212C181.12 234.21 180.514 233.319 179.708 232.632C178.93 231.858 178 231.251 176.978 230.849C175.955 230.448 174.861 230.26 173.763 230.298C171.327 230.482 168.97 231.247 166.89 232.529L162.737 234.928C162.465 235.125 162.131 235.219 161.795 235.193C161.46 235.167 161.145 235.023 160.906 234.786L160.364 234.296C160.197 234.154 160.068 233.972 159.99 233.767C159.937 233.596 159.911 233.418 159.913 233.239L160.79 219.53L146.604 227.745C146.33 227.943 145.994 228.038 145.656 228.012C145.318 227.986 145.001 227.841 144.76 227.603L144.218 227.1C143.664 226.584 143.728 226.133 144.425 225.733L161.912 215.622Z" fill="#FAFAFA"/>
<path d="M205.41 227.358C205.952 227.848 205.875 228.299 205.178 228.648L204.288 229.163C204.014 229.362 203.678 229.456 203.34 229.43C203.003 229.404 202.685 229.26 202.444 229.022L180.805 209.123L177.387 218.589C177.261 218.889 177.026 219.13 176.729 219.264C176.433 219.398 176.096 219.414 175.788 219.311L174.756 219.143C174.435 219.105 174.138 218.954 173.918 218.718C173.836 218.619 173.783 218.499 173.764 218.371C173.746 218.244 173.764 218.114 173.815 217.995L177.89 206.724C177.973 206.511 178.111 206.325 178.29 206.183C178.462 206.03 178.653 205.9 178.857 205.796L179.76 205.267C180.033 205.072 180.367 204.98 180.701 205.005C181.036 205.031 181.351 205.174 181.591 205.409L205.41 227.358Z" fill="#FAFAFA"/>
<path d="M124.436 313.478L245.143 243.839C248.393 241.969 253.061 242.304 255.563 244.613L280.556 267.594C283.058 269.889 282.464 273.281 279.266 275.164L158.546 344.802C156.926 345.715 155.073 346.129 153.219 345.991C151.365 345.854 149.593 345.171 148.126 344.029L123.133 321.048C120.58 318.752 121.186 315.361 124.436 313.478Z" fill="#455A64"/>
<path d="M169.456 354.887L290.176 285.248C291.794 284.331 293.649 283.914 295.504 284.052C297.359 284.19 299.131 284.875 300.596 286.022L325.589 308.99C328.091 311.299 327.484 314.69 324.299 316.56L203.592 386.263C200.342 388.133 195.674 387.785 193.172 385.477L168.115 362.457C165.613 360.149 166.206 356.757 169.456 354.887Z" fill="#455A64"/>
<path d="M214.489 396.297L335.196 326.593C336.818 325.681 338.674 325.268 340.53 325.405C342.386 325.543 344.16 326.225 345.629 327.367L370.609 350.348C373.124 352.656 372.518 356.048 369.319 357.918L248.612 427.557C246.995 428.476 245.14 428.894 243.284 428.756C241.429 428.618 239.656 427.931 238.192 426.783L213.199 403.815C210.633 401.558 211.188 398.179 214.489 396.297Z" fill="#455A64"/>
<path d="M47.2915 174.033L70.3367 160.711C70.994 160.319 71.7528 160.13 72.5172 160.169C73.2816 160.208 74.0173 160.473 74.6311 160.93C75.6241 161.846 75.3146 163.239 73.9476 164.025L50.8895 177.347C50.2323 177.739 49.4734 177.928 48.709 177.889C47.9446 177.85 47.2089 177.585 46.5951 177.128C45.6021 176.212 45.9116 174.819 47.2915 174.033Z" fill="#263238"/>
<path d="M81.4403 153.218C82.2101 152.779 83.0935 152.578 83.9778 152.642C84.8621 152.707 85.7072 153.033 86.4053 153.58C86.6834 153.822 86.8943 154.131 87.0175 154.479C87.1407 154.827 87.1721 155.2 87.1085 155.563C87.045 155.927 86.8886 156.267 86.6547 156.552C86.4208 156.837 86.1172 157.057 85.7733 157.19C85.0011 157.63 84.1157 157.83 83.2296 157.766C82.3434 157.701 81.4962 157.376 80.7955 156.829C80.5176 156.586 80.3073 156.276 80.185 155.927C80.0627 155.579 80.0325 155.205 80.0974 154.842C80.1623 154.478 80.3201 154.138 80.5553 153.853C80.7906 153.569 81.0955 153.35 81.4403 153.218V153.218Z" fill="#263238"/>
<g opacity="0.15">
<path opacity="0.15" d="M269.62 224.16L236.232 193.467L167.509 387.05L200.897 417.743L269.62 224.16Z" fill="white"/>
<path opacity="0.15" d="M369.938 324.762L313.337 272.726L246.845 460.08L252.068 464.878C255.937 468.437 263.133 468.966 268.124 466.064L333.107 428.55L369.938 324.762Z" fill="white"/>
<path opacity="0.15" d="M137.126 359.117L205.849 165.547L162.183 125.376C157.321 120.901 148.177 120.217 141.858 123.867L140.969 124.383L115.499 139.071L61.9156 289.956L137.126 359.117Z" fill="white"/>
</g>
<path d="M32.0354 215.958C31.9582 215.937 31.8873 215.897 31.8291 215.842L31.1714 215.236L29.0822 216.435C29.0385 216.471 28.9838 216.49 28.9275 216.49C28.8711 216.49 28.8164 216.471 28.7727 216.435L28.5277 216.203C28.4858 216.172 28.4507 216.132 28.4245 216.087V215.945L28.2569 212.463C28.2492 212.416 28.2492 212.368 28.2569 212.321C28.2887 212.275 28.3336 212.239 28.3858 212.218L28.6695 212.05C28.7437 212.006 28.8285 211.984 28.9146 211.986C28.9997 212.004 29.0767 212.049 29.1338 212.115L31.468 214.256L31.9194 213.985C31.9871 213.937 32.069 213.914 32.1515 213.92C32.234 213.938 32.3099 213.978 32.3707 214.036L32.5255 214.191C32.5545 214.209 32.579 214.234 32.5969 214.263C32.6148 214.292 32.6257 214.325 32.6286 214.359C32.6286 214.359 32.6286 214.462 32.4868 214.501L32.0354 214.771L32.706 215.39C32.706 215.39 32.8092 215.506 32.7963 215.558C32.7848 215.592 32.7663 215.624 32.7418 215.65C32.7174 215.677 32.6876 215.698 32.6544 215.713L32.2933 215.919C32.2141 215.96 32.1233 215.974 32.0354 215.958V215.958ZM30.7458 214.668L29.0822 213.146L29.237 215.545L30.7458 214.668Z" fill="#FAFAFA"/>
<path d="M34.1117 214.152C33.2999 214.037 32.5457 213.667 31.958 213.095C31.6805 212.89 31.4537 212.624 31.295 212.318C31.1363 212.012 31.0499 211.673 31.0424 211.328C31.0973 211.001 31.2335 210.692 31.4385 210.431C31.6436 210.169 31.9109 209.963 32.216 209.832C32.5106 209.663 32.8217 209.525 33.1445 209.419C33.4295 209.333 33.7239 209.281 34.0214 209.265C34.0631 209.25 34.1087 209.25 34.1504 209.265C34.1592 209.29 34.1592 209.317 34.1504 209.342L34.2535 209.729C34.263 209.742 34.2681 209.758 34.2681 209.774C34.2681 209.79 34.263 209.806 34.2535 209.819H34.1504C33.6954 209.851 33.254 209.988 32.8608 210.219C32.6514 210.31 32.4683 210.452 32.3285 210.632C32.1887 210.813 32.0968 211.025 32.0612 211.251C32.0763 211.505 32.1478 211.752 32.2705 211.975C32.3932 212.199 32.564 212.391 32.7705 212.54C33.196 212.963 33.7403 213.247 34.3309 213.353C34.8583 213.417 35.3924 213.309 35.8527 213.043C36.0147 212.942 36.1698 212.83 36.3169 212.708C36.4374 212.613 36.5418 212.5 36.6264 212.373L35.5432 211.38L34.6662 211.883C34.5918 211.913 34.5085 211.913 34.4341 211.883C34.3934 211.879 34.3539 211.867 34.3182 211.847C34.2826 211.827 34.2518 211.8 34.2278 211.767L34.073 211.625C33.9956 211.56 33.9569 211.509 33.9698 211.457C33.9827 211.405 33.9698 211.367 34.1117 211.315L35.4916 210.516C35.5707 210.461 35.6672 210.438 35.7624 210.451C35.8621 210.467 35.9532 210.517 36.0203 210.593L37.5678 212.012C37.6108 212.047 37.646 212.091 37.671 212.141C37.6801 212.159 37.6848 212.178 37.6848 212.199C37.6848 212.219 37.6801 212.239 37.671 212.257C37.3932 212.816 36.9404 213.268 36.3814 213.546C35.7123 213.993 34.9144 214.206 34.1117 214.152V214.152Z" fill="#FAFAFA"/>
<path d="M51.4182 203.797C51.5372 203.903 51.627 204.037 51.679 204.188C51.7309 204.339 51.7432 204.5 51.7147 204.657C51.6862 204.813 51.6179 204.96 51.5162 205.083C51.4146 205.206 51.2832 205.3 51.1345 205.357C50.8005 205.542 50.4195 205.625 50.0389 205.595C49.6583 205.565 49.2948 205.424 48.9937 205.19C48.8743 205.085 48.7841 204.952 48.7319 204.802C48.6797 204.652 48.6673 204.491 48.6959 204.335C48.7245 204.179 48.7931 204.033 48.8951 203.912C48.997 203.79 49.1288 203.697 49.2775 203.642C49.6092 203.452 49.9901 203.365 50.3714 203.393C50.7528 203.42 51.1173 203.561 51.4182 203.797V203.797Z" fill="#FAFAFA"/>
<path d="M47.7428 202.236C47.2124 202.468 46.7752 202.871 46.5015 203.381C46.2278 203.891 46.1336 204.478 46.234 205.048C46.2807 205.164 46.3637 205.262 46.4706 205.327C46.5775 205.392 46.7026 205.421 46.8272 205.409C47.2012 205.409 47.4849 205.151 47.4204 204.893C47.3551 204.492 47.4231 204.08 47.6141 203.722C47.8052 203.363 48.1086 203.077 48.4779 202.907C49.3694 202.433 50.4106 202.327 51.3795 202.61C51.5294 202.666 51.6946 202.666 51.8442 202.609C51.9937 202.552 52.1174 202.442 52.192 202.301C52.2693 202.094 52.1275 201.888 51.8567 201.811C51.1771 201.605 50.4632 201.536 49.7569 201.609C49.0505 201.682 48.3658 201.895 47.7428 202.236V202.236Z" fill="#FAFAFA"/>
<path d="M46.2598 200.869C45.4734 201.236 44.8154 201.83 44.3715 202.575C43.9276 203.32 43.7183 204.182 43.7708 205.048C43.7708 205.28 44.0416 205.448 44.364 205.448C44.7251 205.448 44.9959 205.215 44.9702 204.958C44.9242 204.254 45.0917 203.552 45.4505 202.945C45.8094 202.337 46.3431 201.852 46.9819 201.553C48.5165 200.71 50.3118 200.476 52.0114 200.895C52.1596 200.941 52.3189 200.933 52.4624 200.875C52.6058 200.816 52.7244 200.709 52.7981 200.573V200.573C52.8754 200.354 52.6949 200.134 52.3983 200.07C50.3241 199.56 48.1342 199.846 46.2598 200.869V200.869Z" fill="#FAFAFA"/>
<path d="M9.53177 229.692L8.25507 228.506L10.4732 227.229L11.7628 228.403L9.53177 229.692Z" fill="#FAFAFA"/>
<path d="M12.8718 227.758L10.2926 225.398L12.5236 224.121L15.0899 226.481L12.8718 227.758Z" fill="#FAFAFA"/>
<path d="M16.199 225.836L12.3431 222.29L14.5741 221.013L18.43 224.559L16.199 225.836Z" fill="#FAFAFA"/>
<path d="M19.5391 223.915L14.3936 219.182L16.6117 217.905L21.7572 222.638L19.5391 223.915Z" fill="#FAFAFA"/>
<path d="M154.845 139.613C154.442 139.516 154.018 139.562 153.645 139.742L145.34 144.526C144.799 144.836 144.812 145.481 145.34 145.984L147.674 148.137C148.022 148.43 148.44 148.626 148.887 148.705C149.079 148.73 149.274 148.73 149.467 148.705C149.683 148.696 149.895 148.638 150.086 148.537L158.391 143.753C158.933 143.443 158.92 142.798 158.391 142.295L156.057 140.142C155.712 139.854 155.291 139.67 154.845 139.613V139.613ZM148.913 148.357C148.718 148.319 148.538 148.225 148.397 148.086L146.062 145.932C145.65 145.558 145.637 145.055 146.062 144.823L154.368 140.039C154.469 139.989 154.578 139.959 154.69 139.948H154.883C155.074 139.986 155.25 140.08 155.386 140.219L157.733 142.36C158.133 142.734 158.146 143.25 157.733 143.482L149.428 148.253C149.277 148.354 149.091 148.391 148.913 148.357V148.357Z" fill="#FAFAFA"/>
<path d="M147.997 144.294L150.757 146.874L149.467 147.622C149.405 147.653 149.337 147.67 149.267 147.67C149.198 147.67 149.129 147.653 149.067 147.622L147.004 145.726C146.707 145.455 146.707 145.068 147.004 144.9L147.997 144.294Z" fill="#FAFAFA"/>
<path d="M148.629 143.946L150.189 143.043L152.949 145.584L151.389 146.487L148.629 143.946Z" fill="#FAFAFA"/>
<path d="M150.795 142.708L152.356 141.805L155.128 144.346L153.555 145.249L150.795 142.708Z" fill="#FAFAFA"/>
<path d="M154.703 140.722L156.689 142.553C157.063 142.889 156.895 143.327 156.25 143.701L155.735 143.998L152.962 141.419L154.252 140.709C154.324 140.681 154.401 140.668 154.479 140.67C154.556 140.672 154.632 140.69 154.703 140.722Z" fill="#FAFAFA"/>
<path d="M156.379 140.013C156.611 139.884 157.179 140.129 157.669 140.567L158.095 140.967C158.585 141.419 158.791 141.883 158.572 142.038L158.172 142.295L155.967 140.258L156.379 140.013Z" fill="#FAFAFA"/>
<path d="M133.334 153.786L140.143 147.97L142.207 153.58L138.493 151.942L133.334 153.786Z" fill="#FAFAFA"/>
<path d="M-25.1716 149.427L32.9768 115.484L-7.50401 160.002L-25.1716 149.427Z" fill="#BA68C8"/>
<path opacity="0.15" d="M-25.1716 149.427L32.9768 115.484L-7.50401 160.002L-25.1716 149.427Z" fill="white"/>
<path d="M32.9768 115.484L-31.9162 142.192L-49.5839 131.617L32.9768 115.484Z" fill="#BA68C8"/>
<path opacity="0.15" d="M32.9768 115.484L-31.9162 142.192L-49.5839 131.617L32.9768 115.484Z" fill="white"/>
<path d="M-31.9163 142.192L-28.0732 158.88L-25.1716 149.427L32.9768 115.484L-31.9163 142.192Z" fill="#BA68C8"/>
<path opacity="0.2" d="M-31.9163 142.192L-28.0732 158.88L-25.1716 149.427L32.9768 115.484L-31.9163 142.192Z" fill="black"/>
<path d="M290.15 153.36C289.951 153.539 289.735 153.698 289.506 153.837L302.182 146.68C302.182 146.68 333.442 121.417 333.442 98.1521V92.8518C333.442 69.6389 318.135 41.9123 299.242 30.9506C298.597 30.5766 297.952 30.2284 297.321 29.906C296.689 29.5836 296.031 29.2741 295.412 29.0033C294.198 28.4706 292.953 28.0099 291.685 27.6234C291.079 27.4429 290.473 27.2752 289.892 27.1463C289.311 27.0016 288.721 26.8939 288.126 26.8239C287.558 26.7241 286.986 26.6552 286.41 26.6175C285.83 26.6175 285.289 26.5402 284.734 26.5402C281.235 26.4947 277.802 27.5011 274.881 29.4289L263.043 36.2509C269.052 33.259 276.919 33.878 285.546 38.8301C299.074 46.6451 310.784 63.0877 316.329 80.3039C318.521 86.8773 319.678 93.7512 319.76 100.68V105.98C319.76 123.957 299.487 144.733 290.15 153.36ZM268.446 68.5169C268.446 79.427 276.094 92.697 285.546 98.1779C293.942 103.001 300.893 100.086 302.311 91.7298H302.221L301.228 91.3301C300.884 91.1894 300.549 91.0301 300.222 90.8529C299.874 90.6853 299.539 90.5047 299.19 90.2984C289.776 84.8046 282.116 71.5217 282.116 60.6374C282.096 60.2809 282.096 59.9235 282.116 59.567C282.102 59.3609 282.102 59.1541 282.116 58.948C282.148 58.3504 282.221 57.7558 282.335 57.1683C274.469 54.2667 268.446 58.8577 268.446 68.5169Z" fill="#BA68C8"/>
<path opacity="0.2" d="M319.76 106.057V100.757C319.678 93.8285 318.521 86.9547 316.329 80.3812V80.3812C310.784 63.165 299.074 46.7225 285.546 38.9075C276.919 33.9425 269.052 33.3235 263.043 36.3283L274.881 29.5062C277.788 27.5767 281.206 26.5617 284.695 26.5917C285.25 26.5917 285.791 26.5917 286.372 26.6691C286.947 26.7068 287.519 26.7757 288.087 26.8754C288.682 26.9455 289.272 27.0532 289.854 27.1978C290.434 27.3268 291.04 27.4944 291.646 27.675C292.915 28.0614 294.159 28.5222 295.373 29.0549C295.992 29.3257 296.663 29.6352 297.282 29.9576C297.901 30.28 298.571 30.6282 299.203 31.0022C318.096 41.9122 333.404 69.6001 333.404 92.9033V98.2036C333.404 121.417 302.144 146.732 302.144 146.732L289.467 153.889C289.696 153.75 289.912 153.59 290.112 153.412C299.487 144.733 319.76 123.957 319.76 106.057Z" fill="black"/>
<path opacity="0.5" d="M282.426 57.1684C282.311 57.7558 282.238 58.3504 282.206 58.948C282.193 59.1541 282.193 59.3609 282.206 59.5671C282.187 59.9236 282.187 60.2809 282.206 60.6374C282.206 71.5217 289.854 84.8047 299.319 90.2984C299.668 90.5047 300.003 90.6853 300.351 90.8529C300.678 91.0302 301.013 91.1894 301.357 91.3301L302.35 91.7299H302.44C300.97 100.074 294.019 102.988 285.675 98.1779C276.223 92.7229 268.575 79.4528 268.575 68.5169C268.446 58.8578 274.469 54.2668 282.426 57.1684Z" fill="black"/>
<path d="M251.346 66.5438C251.346 85.8105 274.817 135.499 282.877 151.993C283.192 152.64 283.654 153.203 284.227 153.639C284.799 154.075 285.466 154.37 286.173 154.502C286.88 154.633 287.608 154.598 288.299 154.397C288.989 154.197 289.624 153.837 290.15 153.347C299.474 144.746 319.811 123.957 319.811 106.057V100.757C319.811 77.5441 304.491 49.8047 285.598 38.8559C266.705 27.9071 251.398 37.9661 251.398 61.2177L251.346 66.5438ZM268.446 68.5298C268.446 57.6197 276.107 53.1963 285.546 58.6514C294.986 64.1064 302.66 77.3636 302.66 88.3124C302.66 99.2611 294.999 103.646 285.546 98.1907C276.094 92.7357 268.446 79.427 268.446 68.5298V68.5298Z" fill="#BA68C8"/>
<path d="M263.043 36.3025L274.881 29.4804C277.791 27.5601 281.209 26.554 284.695 26.5917C285.25 26.5917 285.791 26.5917 286.372 26.6691C286.947 26.7068 287.519 26.7757 288.087 26.8754C288.682 26.9455 289.272 27.0532 289.854 27.1978C290.434 27.3268 291.04 27.4944 291.646 27.675C292.915 28.0614 294.159 28.5222 295.373 29.0549C295.992 29.3257 296.663 29.6352 297.282 29.9576C297.901 30.28 298.571 30.6282 299.203 31.0022C311.983 38.3787 323.113 53.4285 328.98 69.6001L315.298 77.4925C309.417 61.3466 298.288 46.284 285.508 38.8946C276.958 33.9296 269.052 33.3106 263.043 36.3025Z" fill="#BA68C8"/>
<path opacity="0.3" d="M263.043 36.3025L274.881 29.4804C277.791 27.5601 281.209 26.554 284.695 26.5917C285.25 26.5917 285.791 26.5917 286.372 26.6691C286.947 26.7068 287.519 26.7757 288.087 26.8754C288.682 26.9455 289.272 27.0532 289.854 27.1978C290.434 27.3268 291.04 27.4944 291.646 27.675C292.915 28.0614 294.159 28.5222 295.373 29.0549C295.992 29.3257 296.663 29.6352 297.282 29.9576C297.901 30.28 298.571 30.6282 299.203 31.0022C311.983 38.3787 323.113 53.4285 328.98 69.6001L315.298 77.4925C309.417 61.3466 298.288 46.284 285.508 38.8946C276.958 33.9296 269.052 33.3106 263.043 36.3025Z" fill="white"/>
<path d="M285.534 38.8947L287.558 40.2874C288.248 40.7308 288.915 41.2086 289.557 41.7189C290.847 42.7764 292.136 43.7178 293.31 44.8784C294.483 46.0391 295.721 47.0837 296.818 48.2959L298.494 50.0755L300.055 51.9584C308.358 62.0848 314.341 73.9087 317.58 86.5972C318.006 88.1706 318.251 89.7826 318.599 91.3817C318.947 92.9808 319.05 94.6186 319.283 96.2306C319.515 97.8426 319.515 99.4933 319.592 101.131L319.747 106.057L319.889 101.131C319.889 99.4933 319.889 97.8426 319.824 96.1919C319.76 94.5412 319.54 92.9034 319.295 91.2785C319.05 89.6536 318.793 88.0029 318.406 86.4038C315.468 73.4598 309.387 61.4389 300.699 51.4038C296.415 46.3783 291.282 42.1443 285.534 38.8947V38.8947Z" fill="#BA68C8"/>
<g opacity="0.5">
<path opacity="0.5" d="M285.534 38.8947L287.558 40.2874C288.248 40.7308 288.915 41.2086 289.557 41.7189C290.847 42.7764 292.136 43.7178 293.31 44.8784C294.483 46.0391 295.721 47.0837 296.818 48.2959L298.494 50.0755L300.055 51.9584C308.358 62.0848 314.341 73.9087 317.58 86.5972C318.006 88.1706 318.251 89.7826 318.599 91.3817C318.947 92.9808 319.05 94.6186 319.283 96.2306C319.515 97.8426 319.515 99.4933 319.592 101.131L319.747 106.057L319.889 101.131C319.889 99.4933 319.889 97.8426 319.824 96.1919C319.76 94.5412 319.54 92.9034 319.295 91.2785C319.05 89.6536 318.793 88.0029 318.406 86.4038C315.468 73.4598 309.387 61.4389 300.699 51.4038C296.415 46.3783 291.282 42.1443 285.534 38.8947V38.8947Z" fill="white"/>
</g>
<path d="M218.319 28.3715C218.232 28.4952 218.112 28.5929 217.974 28.6542C217.835 28.7155 217.683 28.7382 217.533 28.7197L212.477 28.4876C212.156 28.486 211.847 28.604 211.608 28.8186C211.37 29.0332 211.22 29.329 211.188 29.6482C211.151 30.0835 211.077 30.5148 210.968 30.9378C210.879 31.2824 210.883 31.6446 210.981 31.9869C211.078 32.3292 211.266 32.6393 211.523 32.8851L212.387 33.5944L214.541 33.6976C214.695 33.7143 214.852 33.6883 214.993 33.6223C215.134 33.5564 215.254 33.4531 215.34 33.3236L218.319 28.3715ZM187.214 12.8962C181.656 12.174 178.109 14.5985 178.406 18.5189C180.258 17.7427 182.294 17.5101 184.274 17.8483C190.722 18.6866 197.453 23.4581 199.285 28.5005C199.524 29.1354 199.68 29.7986 199.749 30.4736C202.328 29.2613 203.373 26.7337 202.212 23.5484C200.381 18.4415 193.675 13.67 187.214 12.8317V12.8962ZM216.514 38.1081C216.452 38.2028 216.378 38.2894 216.294 38.366L213.883 40.5583C213.612 40.7863 213.28 40.9278 212.928 40.9646C212.576 41.0013 212.222 40.9317 211.91 40.7646L206.545 37.4375C206.249 37.2752 205.925 37.1702 205.591 37.1279C205.16 37.0728 204.722 37.099 204.301 37.2053C203.64 37.3915 202.968 37.538 202.289 37.6438C202.139 37.6591 201.993 37.7055 201.861 37.78C201.729 37.8545 201.614 37.9555 201.523 38.0766C201.432 38.1978 201.367 38.3365 201.333 38.484C201.298 38.6314 201.295 38.7845 201.322 38.9334L202.031 42.0156C202.233 41.9899 202.436 41.9899 202.638 42.0156V42.0156C202.968 42.0529 203.287 42.1536 203.579 42.3122L208.957 45.6265C209.264 45.7995 209.617 45.8738 209.967 45.8392C210.318 45.8046 210.65 45.6628 210.917 45.433L213.328 43.2407C213.412 43.1551 213.486 43.0599 213.548 42.957L216.514 38.1081ZM176.072 5.86786C175.954 6.07079 175.922 6.31176 175.981 6.53846L176.085 7.00272C176.306 6.99429 176.526 6.96405 176.742 6.91244C177.401 6.71667 178.073 6.57011 178.754 6.47398C178.905 6.46058 179.052 6.41546 179.185 6.34153C179.318 6.2676 179.434 6.16653 179.525 6.04488C179.616 5.92324 179.681 5.78375 179.715 5.63549C179.749 5.48723 179.751 5.33352 179.721 5.18437L178.947 1.4703C178.881 1.29138 178.881 1.0947 178.947 0.915771L176.072 5.86786ZM202.07 43.2665C201.975 43.4092 201.84 43.5201 201.681 43.5845C201.522 43.6489 201.348 43.6639 201.18 43.6276L195.235 42.8538C194.751 42.7622 194.304 42.534 193.946 42.1961C193.743 42.0289 193.577 41.8228 193.456 41.59L191.495 37.6309C191.115 36.9588 190.513 36.4393 189.793 36.1607C188.658 35.761 187.536 35.2967 186.453 34.7938C186.045 34.6265 185.599 34.573 185.163 34.639C184.861 34.6709 184.569 34.7724 184.312 34.9356L181.733 36.5992C181.343 36.8228 180.889 36.909 180.443 36.8442C180.184 36.8065 179.937 36.7094 179.721 36.5605L174.086 32.5498C173.955 32.458 173.844 32.3403 173.76 32.2042C173.677 32.068 173.622 31.9162 173.599 31.758C173.576 31.5998 173.585 31.4386 173.627 31.2843C173.669 31.1299 173.741 30.9857 173.841 30.8605L175.478 28.7326C175.677 28.4557 175.774 28.1195 175.756 27.7795C175.737 27.4395 175.603 27.1161 175.375 26.8627C174.676 26.1246 174.021 25.3451 173.415 24.5285C172.934 23.9045 172.265 23.4523 171.506 23.2389H171.442L165.961 22.0911C165.518 21.9756 165.116 21.7389 164.8 21.4076C164.597 21.1997 164.435 20.9546 164.323 20.6855L162.776 16.404C162.731 16.2957 162.708 16.1795 162.708 16.0622C162.708 15.9449 162.731 15.8288 162.776 15.7205L159.848 20.6468C159.757 20.8744 159.757 21.1284 159.848 21.3561L161.396 25.6376C161.607 26.1213 161.969 26.5238 162.428 26.7853L162.711 26.9272L162.995 27.0174L168.476 28.1652H168.54C169.296 28.3851 169.963 28.8361 170.449 29.4548C171.062 30.2657 171.716 31.0448 172.409 31.789C172.612 32.0065 172.742 32.2812 172.783 32.5756L170.746 35.7997C170.598 36.0529 170.551 36.3521 170.613 36.6385C170.675 36.9249 170.842 37.1777 171.081 37.3472L176.716 41.3579C176.938 41.5028 177.189 41.5954 177.452 41.6287C177.622 41.6547 177.796 41.6547 177.967 41.6287C178.057 41.6412 178.148 41.6412 178.238 41.6287L178.457 41.5513L178.677 41.4481H178.741L181.32 39.7974C181.402 39.7468 181.489 39.7036 181.578 39.6685H181.759C181.895 39.6146 182.038 39.5799 182.184 39.5653C182.62 39.4854 183.07 39.5394 183.474 39.7201C184.565 40.2059 185.68 40.6363 186.814 41.0097C187.536 41.2971 188.141 41.8196 188.529 42.4927L190.554 46.4131C190.679 46.6358 190.845 46.8327 191.044 46.9934V46.9934C191.088 47.0399 191.135 47.083 191.186 47.1224C191.407 47.2952 191.65 47.4383 191.908 47.548C191.968 47.5595 192.029 47.5595 192.089 47.548C192.17 47.5596 192.252 47.5596 192.334 47.548L198.292 48.3217C198.504 48.3508 198.719 48.3148 198.911 48.2186C199.015 48.1529 199.103 48.0648 199.168 47.9607L202.07 43.2665ZM164.762 7.23485C164.573 7.08521 164.443 6.87441 164.394 6.63891C164.344 6.40341 164.379 6.15804 164.491 5.94524L161.551 10.9102C161.434 11.121 161.396 11.3662 161.444 11.6022C161.491 11.8383 161.62 12.05 161.809 12.1998L165.677 15.3078L168.54 15.4496C168.863 15.451 169.175 15.3311 169.414 15.1139C169.652 14.8966 169.801 14.5976 169.83 14.2761C169.868 13.841 169.941 13.4097 170.049 12.9865C170.137 12.6419 170.132 12.2801 170.035 11.938C169.937 11.5959 169.751 11.2858 169.495 11.0392L164.762 7.23485Z" fill="#230D1E"/>
<path opacity="0.1" d="M218.319 28.3715C218.232 28.4952 218.112 28.5929 217.974 28.6542C217.835 28.7155 217.683 28.7382 217.533 28.7197L212.477 28.4876C212.156 28.486 211.847 28.604 211.608 28.8186C211.37 29.0332 211.22 29.329 211.188 29.6482C211.151 30.0835 211.077 30.5148 210.968 30.9378C210.879 31.2824 210.883 31.6446 210.981 31.9869C211.078 32.3292 211.266 32.6393 211.523 32.8851L212.387 33.5944L214.541 33.6976C214.695 33.7143 214.852 33.6883 214.993 33.6223C215.134 33.5564 215.254 33.4531 215.34 33.3236L218.319 28.3715ZM187.214 12.8962C181.656 12.174 178.109 14.5985 178.406 18.5189C180.258 17.7427 182.294 17.5101 184.274 17.8483C190.722 18.6866 197.453 23.4581 199.285 28.5005C199.524 29.1354 199.68 29.7986 199.749 30.4736C202.328 29.2613 203.373 26.7337 202.212 23.5484C200.381 18.4415 193.675 13.67 187.214 12.8317V12.8962ZM216.514 38.1081C216.452 38.2028 216.378 38.2894 216.294 38.366L213.883 40.5583C213.612 40.7863 213.28 40.9278 212.928 40.9646C212.576 41.0013 212.222 40.9317 211.91 40.7646L206.545 37.4375C206.249 37.2752 205.925 37.1702 205.591 37.1279C205.16 37.0728 204.722 37.099 204.301 37.2053C203.64 37.3915 202.968 37.538 202.289 37.6438C202.139 37.6591 201.993 37.7055 201.861 37.78C201.729 37.8545 201.614 37.9555 201.523 38.0766C201.432 38.1978 201.367 38.3365 201.333 38.484C201.298 38.6314 201.295 38.7845 201.322 38.9334L202.031 42.0156C202.233 41.9899 202.436 41.9899 202.638 42.0156V42.0156C202.968 42.0529 203.287 42.1536 203.579 42.3122L208.957 45.6265C209.264 45.7995 209.617 45.8738 209.967 45.8392C210.318 45.8046 210.65 45.6628 210.917 45.433L213.328 43.2407C213.412 43.1551 213.486 43.0599 213.548 42.957L216.514 38.1081ZM176.072 5.86786C175.954 6.07079 175.922 6.31176 175.981 6.53846L176.085 7.00272C176.306 6.99429 176.526 6.96405 176.742 6.91244C177.401 6.71667 178.073 6.57011 178.754 6.47398C178.905 6.46058 179.052 6.41546 179.185 6.34153C179.318 6.2676 179.434 6.16653 179.525 6.04488C179.616 5.92324 179.681 5.78375 179.715 5.63549C179.749 5.48723 179.751 5.33352 179.721 5.18437L178.947 1.4703C178.881 1.29138 178.881 1.0947 178.947 0.915771L176.072 5.86786ZM202.07 43.2665C201.975 43.4092 201.84 43.5201 201.681 43.5845C201.522 43.6489 201.348 43.6639 201.18 43.6276L195.235 42.8538C194.751 42.7622 194.304 42.534 193.946 42.1961C193.743 42.0289 193.577 41.8228 193.456 41.59L191.495 37.6309C191.115 36.9588 190.513 36.4393 189.793 36.1607C188.658 35.761 187.536 35.2967 186.453 34.7938C186.045 34.6265 185.599 34.573 185.163 34.639C184.861 34.6709 184.569 34.7724 184.312 34.9356L181.733 36.5992C181.343 36.8228 180.889 36.909 180.443 36.8442C180.184 36.8065 179.937 36.7094 179.721 36.5605L174.086 32.5498C173.955 32.458 173.844 32.3403 173.76 32.2042C173.677 32.068 173.622 31.9162 173.599 31.758C173.576 31.5998 173.585 31.4386 173.627 31.2843C173.669 31.1299 173.741 30.9857 173.841 30.8605L175.478 28.7326C175.677 28.4557 175.774 28.1195 175.756 27.7795C175.737 27.4395 175.603 27.1161 175.375 26.8627C174.676 26.1246 174.021 25.3451 173.415 24.5285C172.934 23.9045 172.265 23.4523 171.506 23.2389H171.442L165.961 22.0911C165.518 21.9756 165.116 21.7389 164.8 21.4076C164.597 21.1997 164.435 20.9546 164.323 20.6855L162.776 16.404C162.731 16.2957 162.708 16.1795 162.708 16.0622C162.708 15.9449 162.731 15.8288 162.776 15.7205L159.848 20.6468C159.757 20.8744 159.757 21.1284 159.848 21.3561L161.396 25.6376C161.607 26.1213 161.969 26.5238 162.428 26.7853L162.711 26.9272L162.995 27.0174L168.476 28.1652H168.54C169.296 28.3851 169.963 28.8361 170.449 29.4548C171.062 30.2657 171.716 31.0448 172.409 31.789C172.612 32.0065 172.742 32.2812 172.783 32.5756L170.746 35.7997C170.598 36.0529 170.551 36.3521 170.613 36.6385C170.675 36.9249 170.842 37.1777 171.081 37.3472L176.716 41.3579C176.938 41.5028 177.189 41.5954 177.452 41.6287C177.622 41.6547 177.796 41.6547 177.967 41.6287C178.057 41.6412 178.148 41.6412 178.238 41.6287L178.457 41.5513L178.677 41.4481H178.741L181.32 39.7974C181.402 39.7468 181.489 39.7036 181.578 39.6685H181.759C181.895 39.6146 182.038 39.5799 182.184 39.5653C182.62 39.4854 183.07 39.5394 183.474 39.7201C184.565 40.2059 185.68 40.6363 186.814 41.0097C187.536 41.2971 188.141 41.8196 188.529 42.4927L190.554 46.4131C190.679 46.6358 190.845 46.8327 191.044 46.9934V46.9934C191.088 47.0399 191.135 47.083 191.186 47.1224C191.407 47.2952 191.65 47.4383 191.908 47.548C191.968 47.5595 192.029 47.5595 192.089 47.548C192.17 47.5596 192.252 47.5596 192.334 47.548L198.292 48.3217C198.504 48.3508 198.719 48.3148 198.911 48.2186C199.015 48.1529 199.103 48.0648 199.168 47.9607L202.07 43.2665ZM164.762 7.23485C164.573 7.08521 164.443 6.87441 164.394 6.63891C164.344 6.40341 164.379 6.15804 164.491 5.94524L161.551 10.9102C161.434 11.121 161.396 11.3662 161.444 11.6022C161.491 11.8383 161.62 12.05 161.809 12.1998L165.677 15.3078L168.54 15.4496C168.863 15.451 169.175 15.3311 169.414 15.1139C169.652 14.8966 169.801 14.5976 169.83 14.2761C169.868 13.841 169.941 13.4097 170.049 12.9865C170.137 12.6419 170.132 12.2801 170.035 11.938C169.937 11.5959 169.751 11.2858 169.495 11.0392L164.762 7.23485Z" fill="black"/>
<path d="M171.377 23.1357L165.897 21.9879C165.454 21.8724 165.052 21.6357 164.736 21.3044L161.809 26.2436C161.974 26.4074 162.156 26.5543 162.35 26.6821L162.634 26.824L162.918 26.9142L168.398 28.062L171.377 23.1357Z" fill="#1C1C1E"/>
<path d="M185.15 34.51C184.848 34.5419 184.556 34.6434 184.299 34.8066L181.72 36.4702C181.33 36.6938 180.876 36.78 180.431 36.7152L177.503 41.6544C177.674 41.6804 177.848 41.6804 178.019 41.6544C178.109 41.667 178.2 41.667 178.29 41.6544L178.509 41.5771L178.728 41.4739H178.793L181.372 39.8232C181.454 39.7725 181.54 39.7294 181.63 39.6942H181.81L182.223 39.604L185.15 34.51Z" fill="#1C1C1E"/>
<path d="M218.319 28.3715C218.234 28.4973 218.115 28.5967 217.976 28.6582C217.837 28.7198 217.683 28.7411 217.533 28.7197L212.477 28.4875C212.156 28.4859 211.847 28.6039 211.608 28.8186C211.37 29.0332 211.22 29.329 211.188 29.6482C211.15 30.0833 211.077 30.5146 210.968 30.9378C210.879 31.2803 210.883 31.6406 210.981 31.981C211.078 32.3213 211.265 32.6292 211.523 32.8722L212.387 33.5815L214.541 33.6846C214.695 33.7028 214.852 33.6775 214.994 33.6114C215.135 33.5454 215.255 33.4412 215.34 33.3107V33.3107L218.319 28.3715Z" fill="#1C1C1E"/>
<path d="M216.514 38.0436C216.452 38.1383 216.378 38.2249 216.294 38.3015L213.883 40.4938C213.612 40.7218 213.28 40.8633 212.928 40.9001C212.576 40.9369 212.222 40.8672 211.91 40.7002L206.545 37.373C206.249 37.2107 205.925 37.1057 205.591 37.0635L202.663 42.0285C202.993 42.0658 203.313 42.1665 203.605 42.3251L208.982 45.6394C209.289 45.8124 209.642 45.8867 209.993 45.8521C210.344 45.8175 210.675 45.6757 210.943 45.4459L213.354 43.2536C213.438 43.168 213.512 43.0728 213.573 42.9699L216.514 38.0436Z" fill="#1C1C1E"/>
<path d="M202.07 43.1246C201.975 43.2673 201.84 43.3782 201.681 43.4426C201.522 43.507 201.348 43.522 201.18 43.4857L195.235 42.7119C194.751 42.6203 194.304 42.392 193.946 42.0542L191.005 46.9934C191.049 47.0398 191.097 47.0829 191.147 47.1224C191.368 47.2952 191.611 47.4382 191.869 47.5479C191.929 47.5594 191.99 47.5594 192.05 47.5479C192.131 47.5596 192.214 47.5596 192.295 47.5479L198.253 48.3217C198.465 48.3507 198.681 48.3148 198.872 48.2185C198.976 48.1529 199.064 48.0647 199.13 47.9606L202.07 43.1246Z" fill="#1C1C1E"/>
<path d="M215.172 21.9492L209.627 20.7886C208.868 20.5703 208.196 20.1192 207.706 19.499C207.101 18.6851 206.451 17.9058 205.758 17.1648C205.532 16.9134 205.398 16.5922 205.379 16.2545C205.361 15.9167 205.458 15.5826 205.655 15.3078L207.319 13.2186C207.418 13.0923 207.491 12.947 207.533 12.7917C207.575 12.6363 207.584 12.4741 207.562 12.3149C207.539 12.1557 207.484 12.0028 207.4 11.8655C207.316 11.7282 207.205 11.6094 207.074 11.5163L201.438 7.50563C201.129 7.3191 200.774 7.22053 200.413 7.22053C200.052 7.22053 199.697 7.3191 199.388 7.50563L196.808 9.16922C196.479 9.34893 196.115 9.45473 195.741 9.47923C195.367 9.50373 194.992 9.44634 194.642 9.31107C193.552 8.79923 192.438 8.34298 191.302 7.94409C190.58 7.65669 189.975 7.13421 189.587 6.46104L187.626 2.50195C187.449 2.16723 187.198 1.87723 186.892 1.65383C186.585 1.43043 186.233 1.27947 185.86 1.21234L179.902 0.425679C179.762 0.390201 179.616 0.393023 179.478 0.433846C179.34 0.474669 179.215 0.551982 179.118 0.657627C179.02 0.763272 178.953 0.893332 178.923 1.03409C178.893 1.17485 178.901 1.32108 178.947 1.45736L179.747 5.01668C179.777 5.16584 179.774 5.31955 179.741 5.4678C179.707 5.61606 179.642 5.75555 179.551 5.87719C179.46 5.99884 179.344 6.09991 179.211 6.17384C179.078 6.24777 178.931 6.2929 178.78 6.30629C178.101 6.40573 177.429 6.54787 176.768 6.73186C176.025 6.9291 175.236 6.84649 174.55 6.49973L169.185 3.18544C168.875 3.01663 168.521 2.94483 168.169 2.97932C167.817 3.0138 167.484 3.15299 167.212 3.37888L164.762 5.6228C164.641 5.71944 164.543 5.84208 164.476 5.9816C164.409 6.12113 164.374 6.27397 164.374 6.4288C164.374 6.58363 164.409 6.73647 164.476 6.876C164.543 7.01553 164.641 7.13816 164.762 7.23481L169.456 11.1036C169.712 11.3502 169.899 11.6604 169.996 12.0024C170.093 12.3445 170.098 12.7063 170.01 13.0509C169.903 13.4742 169.829 13.9055 169.791 14.3405C169.762 14.6621 169.614 14.961 169.375 15.1783C169.136 15.3956 168.824 15.5154 168.502 15.5141L163.537 15.1659C163.398 15.1394 163.254 15.1521 163.122 15.2027C162.99 15.2532 162.874 15.3396 162.789 15.4522C162.703 15.5647 162.65 15.6989 162.637 15.8396C162.623 15.9804 162.649 16.1222 162.711 16.2492L164.272 20.5307C164.417 20.8735 164.639 21.1785 164.921 21.4222C165.203 21.6659 165.536 21.8418 165.897 21.9363L171.442 23.097C172.2 23.3104 172.87 23.7626 173.351 24.3866C173.958 25.2183 174.613 26.0148 175.311 26.7724C175.538 27.0258 175.672 27.3492 175.691 27.6892C175.71 28.0292 175.612 28.3654 175.414 28.6423L173.789 30.7186C173.69 30.8438 173.617 30.988 173.575 31.1424C173.534 31.2967 173.524 31.4579 173.547 31.6161C173.57 31.7743 173.625 31.9261 173.709 32.0623C173.793 32.1984 173.903 32.3161 174.034 32.408L179.67 36.4186C179.979 36.6052 180.334 36.7037 180.695 36.7037C181.056 36.7037 181.411 36.6052 181.72 36.4186L184.299 34.7679C184.628 34.5882 184.993 34.4824 185.367 34.4579C185.741 34.4334 186.116 34.4908 186.466 34.6261C187.557 35.1119 188.672 35.5423 189.806 35.9157C190.526 36.2065 191.129 36.7281 191.521 37.3987L193.481 41.3707C193.663 41.702 193.916 41.9892 194.221 42.2121C194.526 42.4349 194.877 42.588 195.248 42.6603L201.206 43.4341C201.346 43.4696 201.492 43.4667 201.63 43.4259C201.768 43.3851 201.892 43.3078 201.99 43.2021C202.088 43.0965 202.155 42.9664 202.185 42.8257C202.215 42.6849 202.207 42.5387 202.16 42.4024L201.348 38.856C201.32 38.707 201.324 38.554 201.359 38.4066C201.393 38.2591 201.458 38.1204 201.549 37.9992C201.64 37.8781 201.755 37.777 201.887 37.7025C202.019 37.628 202.164 37.5817 202.315 37.5664C202.994 37.4592 203.665 37.3128 204.327 37.1279C205.075 36.9276 205.871 37.015 206.558 37.3729L211.923 40.6743C212.232 40.8467 212.587 40.9205 212.939 40.8859C213.292 40.8513 213.626 40.71 213.896 40.4809L216.307 38.2886C216.428 38.1919 216.526 38.0693 216.593 37.9298C216.66 37.7902 216.695 37.6374 216.695 37.4826C216.695 37.3277 216.66 37.1749 216.593 37.0354C216.526 36.8958 216.428 36.7732 216.307 36.6765L211.613 32.8077C211.356 32.5619 211.169 32.2518 211.071 31.9095C210.974 31.5671 210.969 31.205 211.059 30.8604C211.168 30.4374 211.241 30.006 211.278 29.5708C211.31 29.2516 211.46 28.9558 211.698 28.7412C211.937 28.5266 212.247 28.4086 212.567 28.4102L217.571 28.6423C217.711 28.6655 217.854 28.65 217.985 28.5975C218.117 28.5449 218.231 28.4574 218.316 28.3444C218.401 28.2314 218.454 28.0972 218.468 27.9565C218.482 27.8158 218.457 27.6738 218.397 27.5461L216.836 23.2646C216.675 22.9348 216.442 22.6453 216.154 22.4176C215.866 22.1899 215.531 22.0299 215.172 21.9492V21.9492ZM202.276 23.4839C204.108 28.5262 200.368 31.9308 193.92 31.0925C187.472 30.2543 180.675 25.4827 178.844 20.4404C177.013 15.398 180.766 11.9935 187.214 12.8317C193.662 13.6699 200.381 18.4415 202.16 23.4839H202.276Z" fill="#3A3A3C"/>
<path d="M381.854 208.671C381.768 208.796 381.649 208.895 381.51 208.956C381.371 209.018 381.218 209.04 381.068 209.02L376.051 208.8C375.73 208.799 375.42 208.917 375.182 209.131C374.943 209.346 374.794 209.642 374.761 209.961C374.713 210.396 374.635 210.826 374.529 211.251C374.44 211.593 374.444 211.954 374.541 212.294C374.639 212.634 374.826 212.942 375.084 213.185L375.961 213.907L378.114 214.01C378.269 214.028 378.425 214.001 378.564 213.932C378.704 213.864 378.821 213.756 378.901 213.624V213.624L381.854 208.671ZM350.749 193.196C345.191 192.461 341.631 194.898 341.941 198.819C343.793 198.042 345.829 197.809 347.809 198.148C354.257 198.986 360.988 203.758 362.807 208.788C363.044 209.428 363.204 210.095 363.284 210.773C365.863 209.561 366.895 207.021 365.747 203.848C363.916 198.754 357.197 193.983 350.749 193.132V193.196ZM380.036 218.395C379.978 218.493 379.904 218.58 379.817 218.653L377.405 220.858C377.136 221.085 376.805 221.224 376.455 221.259C376.105 221.293 375.753 221.221 375.445 221.052L370.08 217.634C369.781 217.47 369.452 217.365 369.113 217.325C368.687 217.243 368.249 217.243 367.823 217.325C367.165 217.522 366.492 217.668 365.812 217.763C365.661 217.778 365.515 217.825 365.383 217.899C365.251 217.974 365.136 218.075 365.045 218.196C364.955 218.317 364.89 218.456 364.855 218.603C364.821 218.751 364.817 218.904 364.844 219.053L365.554 222.148C365.755 222.123 365.959 222.123 366.16 222.148V222.148C366.494 222.194 366.817 222.299 367.114 222.457L372.479 225.772C372.788 225.944 373.143 226.018 373.496 225.983C373.848 225.949 374.182 225.807 374.452 225.578L376.851 223.373C376.942 223.295 377.02 223.204 377.083 223.102V223.102L380.036 218.395ZM339.594 186.155C339.532 186.254 339.492 186.365 339.477 186.481C339.461 186.596 339.47 186.714 339.504 186.825L339.607 187.277C339.829 187.281 340.051 187.251 340.264 187.187C340.925 186.996 341.597 186.849 342.276 186.748C342.428 186.735 342.575 186.69 342.708 186.616C342.84 186.542 342.956 186.441 343.047 186.319C343.139 186.197 343.203 186.058 343.237 185.91C343.271 185.761 343.273 185.608 343.243 185.459L342.431 181.912C342.372 181.732 342.372 181.538 342.431 181.358L339.594 186.155ZM365.605 223.554C365.51 223.695 365.374 223.805 365.215 223.867C365.056 223.929 364.882 223.941 364.715 223.902L358.77 223.128C358.286 223.047 357.836 222.823 357.481 222.483C357.275 222.32 357.107 222.113 356.991 221.877L355.031 217.918C354.649 217.239 354.042 216.714 353.315 216.435C352.193 216.035 351.071 215.584 349.975 215.145C349.631 214.998 349.257 214.933 348.883 214.955C348.509 214.978 348.146 215.087 347.822 215.274L345.242 216.938C344.855 217.17 344.398 217.257 343.953 217.183C343.691 217.147 343.44 217.055 343.218 216.912L337.569 212.721C337.44 212.626 337.332 212.506 337.251 212.368C337.169 212.23 337.116 212.077 337.094 211.919C337.072 211.76 337.083 211.599 337.125 211.444C337.166 211.289 337.239 211.145 337.337 211.019L338.975 208.891C339.172 208.616 339.269 208.282 339.251 207.944C339.232 207.606 339.098 207.285 338.872 207.034C338.178 206.29 337.524 205.511 336.911 204.699C336.421 204.086 335.755 203.636 335.003 203.41H334.938L329.458 202.262C329.011 202.155 328.607 201.917 328.297 201.579C328.087 201.375 327.925 201.129 327.82 200.856L326.272 196.588C326.224 196.478 326.199 196.36 326.199 196.24C326.199 196.12 326.224 196.001 326.272 195.891L323.384 200.869C323.332 200.98 323.305 201.101 323.305 201.224C323.305 201.346 323.332 201.468 323.384 201.579L324.931 205.873C325.135 206.358 325.499 206.759 325.963 207.008C326.045 207.072 326.137 207.124 326.234 207.163C326.322 207.208 326.418 207.239 326.517 207.253L332.011 208.401C332.769 208.616 333.437 209.068 333.92 209.69C334.529 210.504 335.183 211.284 335.88 212.024C336.085 212.234 336.212 212.507 336.241 212.798L334.255 216.164C334.108 216.417 334.06 216.717 334.122 217.003C334.184 217.289 334.351 217.542 334.59 217.712L340.226 221.709C340.446 221.858 340.698 221.955 340.961 221.993C341.132 222.013 341.305 222.013 341.477 221.993H341.735H341.954C342.034 221.966 342.112 221.932 342.186 221.89H342.25L344.83 220.226C344.905 220.175 344.987 220.136 345.075 220.11L345.268 220.033C345.406 219.983 345.549 219.949 345.694 219.93C346.13 219.864 346.575 219.917 346.983 220.084C348.067 220.587 349.189 221.052 350.323 221.451C351.044 221.741 351.648 222.263 352.039 222.934L353.999 226.894C354.126 227.115 354.287 227.315 354.476 227.487V227.487L354.618 227.616C354.837 227.791 355.08 227.935 355.34 228.041H355.521C355.602 228.055 355.684 228.055 355.766 228.041L361.724 228.815C361.931 228.856 362.147 228.819 362.33 228.712C362.436 228.655 362.525 228.57 362.588 228.467L365.605 223.554ZM328.336 187.664C328.145 187.516 328.013 187.305 327.964 187.069C327.914 186.832 327.95 186.586 328.065 186.374L325.124 191.339C325.003 191.549 324.962 191.795 325.009 192.033C325.057 192.27 325.19 192.482 325.382 192.629L329.251 195.75L332.114 195.879C332.437 195.88 332.749 195.76 332.987 195.543C333.226 195.325 333.375 195.027 333.404 194.705C333.43 194.269 333.499 193.837 333.61 193.415C333.698 193.072 333.695 192.711 333.6 192.369C333.505 192.028 333.321 191.717 333.068 191.468L328.336 187.664Z" fill="#230D1E"/>
<path opacity="0.1" d="M381.854 208.671C381.768 208.796 381.649 208.895 381.51 208.956C381.371 209.018 381.218 209.04 381.068 209.02L376.051 208.8C375.73 208.799 375.42 208.917 375.182 209.131C374.943 209.346 374.794 209.642 374.761 209.961C374.713 210.396 374.635 210.826 374.529 211.251C374.44 211.593 374.444 211.954 374.541 212.294C374.639 212.634 374.826 212.942 375.084 213.185L375.961 213.907L378.114 214.01C378.269 214.028 378.425 214.001 378.564 213.932C378.704 213.864 378.821 213.756 378.901 213.624V213.624L381.854 208.671ZM350.749 193.196C345.191 192.461 341.631 194.898 341.941 198.819C343.793 198.042 345.829 197.809 347.809 198.148C354.257 198.986 360.988 203.758 362.807 208.788C363.044 209.428 363.204 210.095 363.284 210.773C365.863 209.561 366.895 207.021 365.747 203.848C363.916 198.754 357.197 193.983 350.749 193.132V193.196ZM380.036 218.395C379.978 218.493 379.904 218.58 379.817 218.653L377.405 220.858C377.136 221.085 376.805 221.224 376.455 221.259C376.105 221.293 375.753 221.221 375.445 221.052L370.08 217.634C369.781 217.47 369.452 217.365 369.113 217.325C368.687 217.243 368.249 217.243 367.823 217.325C367.165 217.522 366.492 217.668 365.812 217.763C365.661 217.778 365.515 217.825 365.383 217.899C365.251 217.974 365.136 218.075 365.045 218.196C364.955 218.317 364.89 218.456 364.855 218.603C364.821 218.751 364.817 218.904 364.844 219.053L365.554 222.148C365.755 222.123 365.959 222.123 366.16 222.148V222.148C366.494 222.194 366.817 222.299 367.114 222.457L372.479 225.772C372.788 225.944 373.143 226.018 373.496 225.983C373.848 225.949 374.182 225.807 374.452 225.578L376.851 223.373C376.942 223.295 377.02 223.204 377.083 223.102V223.102L380.036 218.395ZM339.594 186.155C339.532 186.254 339.492 186.365 339.477 186.481C339.461 186.596 339.47 186.714 339.504 186.825L339.607 187.277C339.829 187.281 340.051 187.251 340.264 187.187C340.925 186.996 341.597 186.849 342.276 186.748C342.428 186.735 342.575 186.69 342.708 186.616C342.84 186.542 342.956 186.441 343.047 186.319C343.139 186.197 343.203 186.058 343.237 185.91C343.271 185.761 343.273 185.608 343.243 185.459L342.431 181.912C342.372 181.732 342.372 181.538 342.431 181.358L339.594 186.155ZM365.605 223.554C365.51 223.695 365.374 223.805 365.215 223.867C365.056 223.929 364.882 223.941 364.715 223.902L358.77 223.128C358.286 223.047 357.836 222.823 357.481 222.483C357.275 222.32 357.107 222.113 356.991 221.877L355.031 217.918C354.649 217.239 354.042 216.714 353.315 216.435C352.193 216.035 351.071 215.584 349.975 215.145C349.631 214.998 349.257 214.933 348.883 214.955C348.509 214.978 348.146 215.087 347.822 215.274L345.242 216.938C344.855 217.17 344.398 217.257 343.953 217.183C343.691 217.147 343.44 217.055 343.218 216.912L337.569 212.721C337.44 212.626 337.332 212.506 337.251 212.368C337.169 212.23 337.116 212.077 337.094 211.919C337.072 211.76 337.083 211.599 337.125 211.444C337.166 211.289 337.239 211.145 337.337 211.019L338.975 208.891C339.172 208.616 339.269 208.282 339.251 207.944C339.232 207.606 339.098 207.285 338.872 207.034C338.178 206.29 337.524 205.511 336.911 204.699C336.421 204.086 335.755 203.636 335.003 203.41H334.938L329.458 202.262C329.011 202.155 328.607 201.917 328.297 201.579C328.087 201.375 327.925 201.129 327.82 200.856L326.272 196.588C326.224 196.478 326.199 196.36 326.199 196.24C326.199 196.12 326.224 196.001 326.272 195.891L323.384 200.869C323.332 200.98 323.305 201.101 323.305 201.224C323.305 201.346 323.332 201.468 323.384 201.579L324.931 205.873C325.135 206.358 325.499 206.759 325.963 207.008C326.045 207.072 326.137 207.124 326.234 207.163C326.322 207.208 326.418 207.239 326.517 207.253L332.011 208.401C332.769 208.616 333.437 209.068 333.92 209.69C334.529 210.504 335.183 211.284 335.88 212.024C336.085 212.234 336.212 212.507 336.241 212.798L334.255 216.164C334.108 216.417 334.06 216.717 334.122 217.003C334.184 217.289 334.351 217.542 334.59 217.712L340.226 221.709C340.446 221.858 340.698 221.955 340.961 221.993C341.132 222.013 341.305 222.013 341.477 221.993H341.735H341.954C342.034 221.966 342.112 221.932 342.186 221.89H342.25L344.83 220.226C344.905 220.175 344.987 220.136 345.075 220.11L345.268 220.033C345.406 219.983 345.549 219.949 345.694 219.93C346.13 219.864 346.575 219.917 346.983 220.084C348.067 220.587 349.189 221.052 350.323 221.451C351.044 221.741 351.648 222.263 352.039 222.934L353.999 226.894C354.126 227.115 354.287 227.315 354.476 227.487V227.487L354.618 227.616C354.837 227.791 355.08 227.935 355.34 228.041H355.521C355.602 228.055 355.684 228.055 355.766 228.041L361.724 228.815C361.931 228.856 362.147 228.819 362.33 228.712C362.436 228.655 362.525 228.57 362.588 228.467L365.605 223.554ZM328.336 187.664C328.145 187.516 328.013 187.305 327.964 187.069C327.914 186.832 327.95 186.586 328.065 186.374L325.124 191.339C325.003 191.549 324.962 191.795 325.009 192.033C325.057 192.27 325.19 192.482 325.382 192.629L329.251 195.75L332.114 195.879C332.437 195.88 332.749 195.76 332.987 195.543C333.226 195.325 333.375 195.027 333.404 194.705C333.43 194.269 333.499 193.837 333.61 193.415C333.698 193.072 333.695 192.711 333.6 192.369C333.505 192.028 333.321 191.717 333.068 191.468L328.336 187.664Z" fill="black"/>
<path d="M334.913 203.449L329.432 202.301C328.986 202.193 328.582 201.955 328.271 201.617L325.344 206.557C325.5 206.73 325.683 206.878 325.885 206.995C325.968 207.059 326.059 207.111 326.156 207.15C326.245 207.195 326.341 207.226 326.44 207.24L331.934 208.388L334.913 203.449Z" fill="#1C1C1E"/>
<path d="M348.673 214.797C348.372 214.839 348.083 214.94 347.822 215.094L345.242 216.757C344.855 216.99 344.398 217.077 343.953 217.002L341.025 221.954C341.197 221.974 341.37 221.974 341.541 221.954H341.799H342.018C342.099 221.928 342.177 221.893 342.251 221.851H342.315L344.894 220.188C344.969 220.136 345.052 220.097 345.139 220.072L345.333 219.994L345.745 219.904L348.673 214.797Z" fill="#1C1C1E"/>
<path d="M381.854 208.672C381.771 208.8 381.652 208.901 381.513 208.963C381.373 209.024 381.218 209.044 381.068 209.02L376.051 208.788C375.728 208.786 375.417 208.906 375.178 209.123C374.939 209.341 374.791 209.64 374.761 209.961C374.717 210.395 374.644 210.826 374.542 211.251C374.454 211.594 374.458 211.955 374.553 212.297C374.648 212.639 374.831 212.949 375.084 213.198L375.961 213.907L378.114 213.998C378.268 214.014 378.423 213.99 378.563 213.926C378.704 213.863 378.825 213.763 378.914 213.636V213.636L381.854 208.672Z" fill="#1C1C1E"/>
<path d="M380.036 218.344C379.978 218.441 379.904 218.528 379.817 218.601L377.405 220.807C377.136 221.033 376.805 221.173 376.455 221.207C376.105 221.242 375.753 221.17 375.445 221L370.08 217.634C369.781 217.47 369.452 217.365 369.113 217.325L366.186 222.277C366.519 222.323 366.842 222.428 367.14 222.586L372.505 225.901C372.814 226.073 373.169 226.147 373.521 226.112C373.874 226.078 374.208 225.936 374.478 225.707L376.876 223.502C376.968 223.424 377.046 223.333 377.109 223.231L380.036 218.344Z" fill="#1C1C1E"/>
<path d="M365.605 223.438C365.51 223.579 365.374 223.689 365.215 223.751C365.056 223.813 364.882 223.825 364.715 223.786L358.77 223.012C358.286 222.931 357.836 222.707 357.481 222.367L354.54 227.306L354.682 227.435C354.902 227.611 355.145 227.754 355.404 227.861H355.585C355.666 227.874 355.749 227.874 355.83 227.861L361.788 228.635C361.996 228.676 362.212 228.639 362.394 228.532C362.501 228.475 362.59 228.39 362.652 228.286L365.605 223.438Z" fill="#1C1C1E"/>
<path d="M378.708 202.249L373.162 201.089C372.401 200.875 371.727 200.423 371.241 199.799C370.635 198.982 369.98 198.203 369.281 197.465C369.055 197.21 368.923 196.886 368.907 196.546C368.89 196.206 368.99 195.87 369.19 195.595L370.815 193.467C370.917 193.342 370.993 193.198 371.036 193.043C371.08 192.888 371.092 192.725 371.07 192.565C371.048 192.406 370.994 192.252 370.91 192.114C370.826 191.977 370.715 191.858 370.583 191.765L364.935 187.767C364.625 187.58 364.271 187.482 363.909 187.482C363.548 187.482 363.194 187.58 362.884 187.767L360.305 189.418C359.98 189.602 359.617 189.711 359.244 189.736C358.871 189.76 358.498 189.7 358.151 189.56C357.055 189.057 355.933 188.592 354.811 188.205C354.089 187.918 353.485 187.396 353.096 186.722L351.136 182.815C350.954 182.484 350.701 182.196 350.396 181.973C350.091 181.751 349.74 181.598 349.369 181.525L343.411 180.751C343.272 180.716 343.125 180.719 342.987 180.76C342.849 180.8 342.725 180.878 342.627 180.983C342.529 181.089 342.462 181.219 342.432 181.36C342.402 181.501 342.411 181.647 342.457 181.783L343.256 185.33C343.286 185.479 343.284 185.632 343.25 185.781C343.216 185.929 343.152 186.068 343.06 186.19C342.969 186.312 342.853 186.413 342.721 186.487C342.588 186.561 342.441 186.606 342.289 186.619C341.611 186.726 340.939 186.873 340.277 187.058C339.529 187.257 338.734 187.169 338.046 186.813L332.682 183.511C332.375 183.338 332.022 183.264 331.671 183.299C331.32 183.333 330.989 183.475 330.721 183.705L328.31 185.897C328.187 185.992 328.087 186.114 328.018 186.254C327.95 186.394 327.914 186.547 327.914 186.703C327.914 186.859 327.95 187.012 328.018 187.152C328.087 187.292 328.187 187.414 328.31 187.509L333.004 191.378C333.259 191.625 333.445 191.935 333.542 192.277C333.64 192.619 333.645 192.98 333.559 193.325C333.445 193.748 333.368 194.179 333.326 194.615C333.294 194.934 333.144 195.23 332.906 195.444C332.668 195.659 332.358 195.777 332.037 195.775L327.033 195.543C326.893 195.515 326.747 195.527 326.613 195.578C326.479 195.629 326.362 195.717 326.275 195.832C326.189 195.946 326.137 196.083 326.125 196.226C326.113 196.369 326.142 196.512 326.208 196.639L327.755 200.921C327.905 201.26 328.128 201.561 328.41 201.802C328.691 202.043 329.022 202.218 329.38 202.314L334.938 203.474C335.696 203.689 336.365 204.141 336.847 204.764C337.456 205.578 338.111 206.357 338.807 207.098C339.036 207.349 339.171 207.671 339.187 208.01C339.204 208.349 339.101 208.684 338.898 208.955L337.273 211.083C337.172 211.209 337.099 211.353 337.056 211.508C337.013 211.663 337.002 211.825 337.024 211.984C337.046 212.143 337.1 212.296 337.182 212.434C337.265 212.572 337.375 212.691 337.505 212.785L343.153 216.796C343.463 216.983 343.817 217.081 344.178 217.081C344.54 217.081 344.894 216.983 345.204 216.796L347.783 215.132C348.108 214.949 348.471 214.84 348.844 214.816C349.216 214.791 349.59 214.851 349.937 214.991C351.03 215.502 352.15 215.959 353.29 216.358C354.006 216.649 354.605 217.171 354.992 217.841L356.952 221.8C357.135 222.132 357.39 222.421 357.698 222.644C358.005 222.866 358.358 223.019 358.732 223.089L364.677 223.863C364.816 223.9 364.962 223.899 365.1 223.86C365.239 223.821 365.364 223.745 365.463 223.641C365.562 223.537 365.631 223.408 365.663 223.268C365.695 223.127 365.688 222.981 365.644 222.844L364.832 219.285C364.802 219.136 364.804 218.982 364.838 218.834C364.872 218.686 364.936 218.546 365.028 218.424C365.119 218.303 365.235 218.202 365.367 218.128C365.5 218.054 365.647 218.009 365.799 217.995C366.478 217.899 367.15 217.756 367.811 217.57C368.558 217.372 369.351 217.454 370.042 217.802L375.406 221.116C375.717 221.285 376.071 221.357 376.423 221.322C376.774 221.288 377.108 221.149 377.379 220.923L379.778 218.73C379.899 218.634 379.997 218.511 380.064 218.372C380.131 218.232 380.166 218.079 380.166 217.924C380.166 217.77 380.131 217.617 380.064 217.477C379.997 217.338 379.899 217.215 379.778 217.118L375.071 213.25C374.818 213.004 374.635 212.695 374.54 212.355C374.444 212.016 374.441 211.657 374.529 211.315C374.637 210.892 374.71 210.461 374.749 210.026C374.778 209.704 374.926 209.405 375.165 209.188C375.404 208.971 375.715 208.851 376.038 208.852L381.055 209.084C381.194 209.111 381.337 209.098 381.469 209.047C381.602 208.997 381.717 208.91 381.803 208.798C381.888 208.685 381.941 208.551 381.955 208.41C381.968 208.27 381.943 208.128 381.88 208.001L380.32 203.719C380.182 203.367 379.965 203.051 379.685 202.796C379.406 202.541 379.071 202.354 378.708 202.249V202.249ZM365.812 203.797C367.643 208.839 363.903 212.244 357.442 211.405C350.981 210.567 344.275 205.796 342.444 200.753C340.613 195.711 344.365 192.306 350.814 193.145C357.262 193.983 363.916 198.754 365.747 203.797H365.812Z" fill="#3A3A3C"/>
<path d="M186.969 92.0007C187.036 92.1045 187.13 92.1873 187.242 92.2398C187.354 92.2922 187.478 92.3122 187.601 92.2973L189.316 92.2199L190.012 91.6525C190.218 91.4576 190.368 91.2117 190.447 90.9398C190.527 90.6679 190.532 90.3798 190.464 90.105C190.376 89.7751 190.316 89.4387 190.283 89.0991C190.266 88.8402 190.149 88.5982 189.956 88.4246C189.764 88.2511 189.511 88.1599 189.251 88.1706L185.267 88.3511C185.145 88.3658 185.022 88.3472 184.911 88.2972C184.8 88.2472 184.704 88.1677 184.635 88.0674L186.969 92.0007ZM197.479 84.1728C196.551 86.752 197.402 88.7251 199.439 89.6923C199.502 89.1508 199.627 88.6184 199.813 88.1061C201.271 84.0954 206.635 80.2911 211.781 79.6205C213.357 79.3529 214.976 79.5408 216.449 80.1621C216.694 77.0413 213.87 75.0939 209.434 75.6743C204.288 76.3449 198.936 80.1492 197.479 84.1728V84.1728ZM188.452 99.6481C188.504 99.7315 188.564 99.8093 188.632 99.8802L190.554 101.621C190.77 101.803 191.036 101.916 191.317 101.943C191.597 101.971 191.88 101.913 192.127 101.776L196.409 99.1967C196.638 99.0636 196.893 98.9801 197.157 98.9517C197.315 98.9324 197.475 98.9324 197.634 98.9517L198.201 96.4885C198.23 96.3674 198.231 96.2415 198.206 96.1196C198.182 95.9977 198.131 95.8826 198.057 95.7822C197.984 95.6818 197.889 95.5984 197.781 95.5378C197.672 95.4772 197.552 95.4408 197.428 95.4311C196.888 95.3478 196.354 95.2315 195.828 95.0829C195.492 95.0171 195.146 95.0171 194.81 95.0829C194.542 95.1114 194.283 95.1948 194.049 95.3279L189.767 97.9845C189.52 98.1166 189.24 98.1713 188.961 98.1414C188.683 98.1115 188.42 97.9984 188.207 97.8168L186.272 96.063C186.206 96.0036 186.149 95.9339 186.105 95.8566L188.452 99.6481ZM216.062 66.1183C216.109 66.2652 216.109 66.4228 216.062 66.5696L215.418 69.3939C215.389 69.5151 215.388 69.6409 215.412 69.7628C215.437 69.8847 215.488 69.9998 215.562 70.1002C215.635 70.2006 215.73 70.284 215.838 70.3446C215.947 70.4052 216.067 70.4416 216.191 70.4514C216.732 70.5354 217.266 70.656 217.79 70.8125C217.966 70.8329 218.144 70.8329 218.319 70.8125L218.397 70.4514C218.424 70.3637 218.433 70.2712 218.421 70.18C218.41 70.0888 218.38 70.0011 218.332 69.9226L216.062 66.1183ZM199.981 103.723C200.033 103.807 200.103 103.878 200.187 103.93C200.339 104.004 200.51 104.031 200.677 104.007L205.423 103.388H205.617H205.758C205.968 103.307 206.164 103.193 206.339 103.053L206.455 102.949C206.613 102.821 206.744 102.664 206.842 102.485L208.402 99.3128C208.717 98.7829 209.198 98.3707 209.769 98.1392C210.672 97.8297 211.562 97.4557 212.439 97.056C212.763 96.9149 213.121 96.8702 213.47 96.927C213.589 96.9391 213.706 96.965 213.818 97.0044H213.96C214.032 97.0228 214.098 97.0582 214.154 97.1076L216.217 98.3972L216.398 98.4874H216.578H216.797C216.934 98.5065 217.073 98.5065 217.21 98.4874C217.419 98.4627 217.618 98.3874 217.79 98.2682L222.278 95.07C222.382 95.0046 222.472 94.9189 222.543 94.818C222.613 94.7171 222.662 94.603 222.688 94.4827C222.713 94.3623 222.714 94.2381 222.69 94.1174C222.666 93.9968 222.618 93.8821 222.549 93.7804L220.963 91.098C220.995 90.8684 221.094 90.6532 221.247 90.479C221.803 89.888 222.328 89.2682 222.82 88.6219C223.204 88.1297 223.738 87.7764 224.342 87.616L228.713 86.7004C228.791 86.6884 228.865 86.6622 228.933 86.623V86.623C229.012 86.5973 229.086 86.558 229.152 86.507C229.525 86.3063 229.816 85.9828 229.977 85.5914L231.267 82.1739C231.305 82.0842 231.325 81.9877 231.325 81.8902C231.325 81.7927 231.305 81.6961 231.267 81.6065L228.92 77.7376C228.958 77.8227 228.978 77.9151 228.978 78.0085C228.978 78.1019 228.958 78.1942 228.92 78.2793L227.63 81.6967C227.541 81.9141 227.41 82.1115 227.243 82.2771C226.995 82.5396 226.677 82.7273 226.328 82.8187L221.956 83.7343C221.356 83.9014 220.823 84.2534 220.434 84.7402C219.947 85.3864 219.426 86.0063 218.874 86.5973C218.692 86.7976 218.585 87.0547 218.571 87.325C218.556 87.5952 218.636 87.8621 218.796 88.0803L220.086 89.7697C220.223 89.9691 220.28 90.2132 220.244 90.4527C220.208 90.6921 220.082 90.909 219.893 91.0593L215.392 94.2575C215.221 94.3797 215.021 94.4552 214.811 94.4768C214.451 94.546 214.078 94.4769 213.767 94.2833L211.703 92.9937C211.492 92.8744 211.26 92.7957 211.02 92.7616C210.667 92.7044 210.304 92.7491 209.975 92.8905C209.111 93.2903 208.209 93.6514 207.319 93.9738C206.742 94.2026 206.26 94.621 205.952 95.1602L204.391 98.3069C204.297 98.4948 204.165 98.6616 204.005 98.7969C203.717 99.0635 203.359 99.2424 202.973 99.3128L198.227 99.9318C198.096 99.9595 197.96 99.9473 197.835 99.8967C197.711 99.8462 197.605 99.7596 197.531 99.6481L199.981 103.723ZM223.594 74.217C223.393 74.4147 223.246 74.6614 223.17 74.9327C223.093 75.2041 223.088 75.4907 223.155 75.7645C223.249 76.093 223.309 76.43 223.336 76.7704C223.349 77.0282 223.464 77.2702 223.654 77.4441C223.845 77.6179 224.097 77.7095 224.355 77.699L226.637 77.5958L229.681 75.1197C229.835 74.9996 229.941 74.8279 229.979 74.636C230.017 74.4441 229.984 74.245 229.887 74.0752V74.0752L227.54 70.1161C227.637 70.2859 227.67 70.485 227.632 70.6769C227.594 70.8688 227.488 71.0405 227.334 71.1606L223.594 74.217Z" fill="#230D1E"/>
<path opacity="0.1" d="M186.969 92.0007C187.036 92.1045 187.13 92.1873 187.242 92.2398C187.354 92.2922 187.478 92.3122 187.601 92.2973L189.316 92.2199L190.012 91.6525C190.218 91.4576 190.368 91.2117 190.447 90.9398C190.527 90.6679 190.532 90.3798 190.464 90.105C190.376 89.7751 190.316 89.4387 190.283 89.0991C190.266 88.8402 190.149 88.5982 189.956 88.4246C189.764 88.2511 189.511 88.1599 189.251 88.1706L185.267 88.3511C185.145 88.3658 185.022 88.3472 184.911 88.2972C184.8 88.2472 184.704 88.1677 184.635 88.0674L186.969 92.0007ZM197.479 84.1728C196.551 86.752 197.402 88.7251 199.439 89.6923C199.502 89.1508 199.627 88.6184 199.813 88.1061C201.271 84.0954 206.635 80.2911 211.781 79.6205C213.357 79.3529 214.976 79.5408 216.449 80.1621C216.694 77.0413 213.87 75.0939 209.434 75.6743C204.288 76.3449 198.936 80.1492 197.479 84.1728V84.1728ZM188.452 99.6481C188.504 99.7315 188.564 99.8093 188.632 99.8802L190.554 101.621C190.77 101.803 191.036 101.916 191.317 101.943C191.597 101.971 191.88 101.913 192.127 101.776L196.409 99.1967C196.638 99.0636 196.893 98.9801 197.157 98.9517C197.315 98.9324 197.475 98.9324 197.634 98.9517L198.201 96.4885C198.23 96.3674 198.231 96.2415 198.206 96.1196C198.182 95.9977 198.131 95.8826 198.057 95.7822C197.984 95.6818 197.889 95.5984 197.781 95.5378C197.672 95.4772 197.552 95.4408 197.428 95.4311C196.888 95.3478 196.354 95.2315 195.828 95.0829C195.492 95.0171 195.146 95.0171 194.81 95.0829C194.542 95.1114 194.283 95.1948 194.049 95.3279L189.767 97.9845C189.52 98.1166 189.24 98.1713 188.961 98.1414C188.683 98.1115 188.42 97.9984 188.207 97.8168L186.272 96.063C186.206 96.0036 186.149 95.9339 186.105 95.8566L188.452 99.6481ZM216.062 66.1183C216.109 66.2652 216.109 66.4228 216.062 66.5696L215.418 69.3939C215.389 69.5151 215.388 69.6409 215.412 69.7628C215.437 69.8847 215.488 69.9998 215.562 70.1002C215.635 70.2006 215.73 70.284 215.838 70.3446C215.947 70.4052 216.067 70.4416 216.191 70.4514C216.732 70.5354 217.266 70.656 217.79 70.8125C217.966 70.8329 218.144 70.8329 218.319 70.8125L218.397 70.4514C218.424 70.3637 218.433 70.2712 218.421 70.18C218.41 70.0888 218.38 70.0011 218.332 69.9226L216.062 66.1183ZM199.981 103.723C200.033 103.807 200.103 103.878 200.187 103.93C200.339 104.004 200.51 104.031 200.677 104.007L205.423 103.388H205.617H205.758C205.968 103.307 206.164 103.193 206.339 103.053L206.455 102.949C206.613 102.821 206.744 102.664 206.842 102.485L208.402 99.3128C208.717 98.7829 209.198 98.3707 209.769 98.1392C210.672 97.8297 211.562 97.4557 212.439 97.056C212.763 96.9149 213.121 96.8702 213.47 96.927C213.589 96.9391 213.706 96.965 213.818 97.0044H213.96C214.032 97.0228 214.098 97.0582 214.154 97.1076L216.217 98.3972L216.398 98.4874H216.578H216.797C216.934 98.5065 217.073 98.5065 217.21 98.4874C217.419 98.4627 217.618 98.3874 217.79 98.2682L222.278 95.07C222.382 95.0046 222.472 94.9189 222.543 94.818C222.613 94.7171 222.662 94.603 222.688 94.4827C222.713 94.3623 222.714 94.2381 222.69 94.1174C222.666 93.9968 222.618 93.8821 222.549 93.7804L220.963 91.098C220.995 90.8684 221.094 90.6532 221.247 90.479C221.803 89.888 222.328 89.2682 222.82 88.6219C223.204 88.1297 223.738 87.7764 224.342 87.616L228.713 86.7004C228.791 86.6884 228.865 86.6622 228.933 86.623V86.623C229.012 86.5973 229.086 86.558 229.152 86.507C229.525 86.3063 229.816 85.9828 229.977 85.5914L231.267 82.1739C231.305 82.0842 231.325 81.9877 231.325 81.8902C231.325 81.7927 231.305 81.6961 231.267 81.6065L228.92 77.7376C228.958 77.8227 228.978 77.9151 228.978 78.0085C228.978 78.1019 228.958 78.1942 228.92 78.2793L227.63 81.6967C227.541 81.9141 227.41 82.1115 227.243 82.2771C226.995 82.5396 226.677 82.7273 226.328 82.8187L221.956 83.7343C221.356 83.9014 220.823 84.2534 220.434 84.7402C219.947 85.3864 219.426 86.0063 218.874 86.5973C218.692 86.7976 218.585 87.0547 218.571 87.325C218.556 87.5952 218.636 87.8621 218.796 88.0803L220.086 89.7697C220.223 89.9691 220.28 90.2132 220.244 90.4527C220.208 90.6921 220.082 90.909 219.893 91.0593L215.392 94.2575C215.221 94.3797 215.021 94.4552 214.811 94.4768C214.451 94.546 214.078 94.4769 213.767 94.2833L211.703 92.9937C211.492 92.8744 211.26 92.7957 211.02 92.7616C210.667 92.7044 210.304 92.7491 209.975 92.8905C209.111 93.2903 208.209 93.6514 207.319 93.9738C206.742 94.2026 206.26 94.621 205.952 95.1602L204.391 98.3069C204.297 98.4948 204.165 98.6616 204.005 98.7969C203.717 99.0635 203.359 99.2424 202.973 99.3128L198.227 99.9318C198.096 99.9595 197.96 99.9473 197.835 99.8967C197.711 99.8462 197.605 99.7596 197.531 99.6481L199.981 103.723ZM223.594 74.217C223.393 74.4147 223.246 74.6614 223.17 74.9327C223.093 75.2041 223.088 75.4907 223.155 75.7645C223.249 76.093 223.309 76.43 223.336 76.7704C223.349 77.0282 223.464 77.2702 223.654 77.4441C223.845 77.6179 224.097 77.7095 224.355 77.699L226.637 77.5958L229.681 75.1197C229.835 74.9996 229.941 74.8279 229.979 74.636C230.017 74.4441 229.984 74.245 229.887 74.0752V74.0752L227.54 70.1161C227.637 70.2859 227.67 70.485 227.632 70.6769C227.594 70.8688 227.488 71.0405 227.334 71.1606L223.594 74.217Z" fill="black"/>
<path d="M222.059 83.8891L226.431 82.9735C226.781 82.8821 227.098 82.6945 227.346 82.4319L229.694 86.3007C229.559 86.4307 229.412 86.5473 229.255 86.6489C229.189 86.6999 229.115 86.7392 229.036 86.765C228.968 86.8041 228.894 86.8303 228.817 86.8423L224.445 87.758L222.059 83.8891Z" fill="#1C1C1E"/>
<path d="M211.085 92.9421C211.325 92.9762 211.557 93.055 211.768 93.1743L213.831 94.4639C214.143 94.6575 214.516 94.7266 214.876 94.6573L217.223 98.6035C217.086 98.6226 216.947 98.6226 216.81 98.6035H216.591H216.411L216.23 98.5132L214.167 97.2236C214.111 97.1743 214.045 97.1389 213.973 97.1205H213.831L213.496 97.056L211.085 92.9421Z" fill="#1C1C1E"/>
<path d="M184.635 88.0674C184.704 88.1675 184.8 88.2461 184.911 88.294C185.023 88.342 185.146 88.3573 185.267 88.3382L189.251 88.1577C189.511 88.147 189.764 88.2382 189.956 88.4117C190.149 88.5852 190.266 88.8273 190.283 89.0862C190.312 89.4255 190.368 89.7619 190.451 90.0921C190.527 90.3654 190.526 90.6544 190.448 90.9273C190.371 91.2002 190.22 91.4466 190.012 91.6396L189.316 92.207L187.614 92.2844C187.489 92.3018 187.362 92.2831 187.248 92.2305C187.133 92.178 187.037 92.0937 186.969 91.9878V91.9878L184.635 88.0674Z" fill="#1C1C1E"/>
<path d="M186.079 95.7663C186.124 95.8436 186.18 95.9132 186.247 95.9727L188.181 97.7265C188.394 97.908 188.657 98.0211 188.935 98.0511C189.214 98.081 189.495 98.0263 189.741 97.8942L194.023 95.2376C194.257 95.1045 194.516 95.0211 194.784 94.9926L197.118 98.9516C196.854 98.9801 196.599 99.0636 196.37 99.1967L192.089 101.776C191.842 101.913 191.559 101.971 191.278 101.943C190.997 101.916 190.731 101.803 190.515 101.621L188.594 99.8802C188.526 99.8093 188.465 99.7315 188.413 99.648L186.079 95.7663Z" fill="#1C1C1E"/>
<path d="M197.595 99.8287C197.67 99.9402 197.776 100.027 197.9 100.077C198.024 100.128 198.16 100.14 198.292 100.112L203.037 99.4934C203.423 99.423 203.781 99.2441 204.069 98.9775L206.416 102.846L206.3 102.95C206.125 103.09 205.929 103.203 205.72 103.285H205.578H205.384L200.639 103.904C200.471 103.928 200.3 103.901 200.149 103.826C200.065 103.775 199.994 103.704 199.942 103.62L197.595 99.8287Z" fill="#1C1C1E"/>
<path d="M185.847 84.0567L184.557 87.4742C184.507 87.5754 184.486 87.6885 184.497 87.8009C184.508 87.9132 184.55 88.0203 184.618 88.1101C184.687 88.2 184.779 88.2689 184.884 88.3092C184.99 88.3495 185.104 88.3596 185.215 88.3382L189.2 88.1577C189.459 88.1471 189.712 88.2382 189.905 88.4118C190.098 88.5853 190.215 88.8274 190.232 89.0862C190.26 89.4255 190.316 89.7619 190.399 90.0921C190.475 90.3655 190.474 90.6544 190.397 90.9273C190.319 91.2002 190.169 91.4467 189.961 91.6396L186.221 94.696C186.124 94.7733 186.046 94.8714 185.992 94.9831C185.939 95.0947 185.911 95.2169 185.911 95.3408C185.911 95.4647 185.939 95.5869 185.992 95.6986C186.046 95.8102 186.124 95.9083 186.221 95.9856L188.129 97.7266C188.345 97.9088 188.611 98.0212 188.892 98.0488C189.173 98.0765 189.456 98.018 189.703 97.8813L193.984 95.3021C194.533 95.0192 195.167 94.9502 195.764 95.1087C196.29 95.256 196.824 95.3723 197.363 95.4569C197.487 95.4666 197.608 95.5031 197.716 95.5637C197.825 95.6243 197.919 95.7076 197.993 95.808C198.066 95.9084 198.117 96.0235 198.142 96.1454C198.167 96.2673 198.165 96.3932 198.137 96.5144L197.492 99.3386C197.457 99.4473 197.452 99.5633 197.476 99.6748C197.501 99.7863 197.554 99.8892 197.632 99.9732C197.709 100.057 197.807 100.119 197.917 100.153C198.026 100.186 198.142 100.19 198.253 100.164L202.999 99.5449C203.293 99.4921 203.572 99.3759 203.817 99.2044C204.062 99.033 204.267 98.8103 204.417 98.5519L205.978 95.3795C206.287 94.8444 206.769 94.4306 207.345 94.206C208.247 93.8836 209.137 93.5225 210.001 93.1227C210.278 93.0083 210.578 92.9582 210.877 92.9761C211.176 92.9939 211.468 93.0793 211.729 93.2259L213.78 94.5155C214.027 94.6645 214.31 94.7432 214.599 94.7432C214.887 94.7432 215.17 94.6645 215.418 94.5155L219.957 91.2528C220.149 91.1043 220.277 90.8872 220.313 90.6469C220.349 90.4065 220.291 90.1615 220.15 89.9631L218.861 88.2609C218.701 88.0427 218.621 87.7758 218.635 87.5055C218.649 87.2353 218.756 86.9782 218.938 86.7778C219.491 86.1868 220.012 85.5669 220.499 84.9208C220.888 84.434 221.42 84.082 222.02 83.9149L226.444 82.9993C226.727 82.9176 226.99 82.7749 227.213 82.5811C227.435 82.3872 227.613 82.1471 227.733 81.8773L229.023 78.4727C229.071 78.3708 229.091 78.2576 229.08 78.1452C229.069 78.0329 229.027 77.9258 228.959 77.8355C228.891 77.7452 228.8 77.6751 228.696 77.6329C228.591 77.5906 228.477 77.5778 228.365 77.5958L224.367 77.7764C224.11 77.7869 223.858 77.6953 223.667 77.5215C223.476 77.3476 223.362 77.1056 223.349 76.8478C223.316 76.5082 223.255 76.1718 223.168 75.842C223.101 75.5681 223.106 75.2815 223.182 75.0101C223.259 74.7388 223.405 74.4921 223.607 74.2944L227.359 71.2381C227.458 71.1622 227.538 71.0646 227.594 70.9528C227.649 70.8409 227.677 70.7179 227.677 70.5932C227.677 70.4686 227.649 70.3455 227.594 70.2337C227.538 70.1219 227.458 70.0243 227.359 69.9484L225.373 68.1817C225.161 67.9989 224.897 67.886 224.618 67.8583C224.338 67.8306 224.057 67.8895 223.813 68.0269L219.531 70.6061C218.983 70.8891 218.348 70.958 217.752 70.7996C217.227 70.6519 216.693 70.5398 216.153 70.4643C216.029 70.4508 215.909 70.4115 215.802 70.3489C215.694 70.2863 215.601 70.2019 215.528 70.101C215.455 70.0001 215.404 69.8851 215.378 69.7633C215.353 69.6415 215.353 69.5156 215.379 69.3939L216.024 66.5697C216.06 66.4597 216.066 66.3421 216.041 66.2292C216.015 66.1162 215.961 66.0121 215.881 65.9277C215.802 65.8433 215.702 65.7817 215.591 65.7494C215.48 65.7172 215.362 65.7154 215.25 65.7443L210.504 66.3633C210.21 66.4169 209.932 66.5348 209.689 66.7087C209.446 66.8826 209.244 67.1082 209.098 67.3692L207.564 70.619C207.252 71.1515 206.77 71.5645 206.197 71.7926C205.337 72.1193 204.447 72.4804 203.527 72.8759C203.252 72.99 202.955 73.0401 202.658 73.0222C202.361 73.0043 202.071 72.919 201.812 72.7727L199.749 71.4831C199.502 71.3341 199.219 71.2553 198.93 71.2553C198.641 71.2553 198.358 71.3341 198.111 71.4831L193.623 74.6813C193.431 74.8297 193.303 75.0468 193.267 75.2872C193.231 75.5276 193.289 75.7726 193.43 75.9709L194.719 77.6603C194.877 77.8794 194.955 78.1458 194.941 78.4154C194.927 78.6851 194.822 78.9418 194.642 79.1433C194.089 79.7343 193.569 80.3542 193.082 81.0004C192.693 81.4872 192.16 81.8392 191.56 82.0063L187.136 82.9219C186.849 83.0007 186.584 83.1439 186.361 83.3405C186.137 83.5372 185.962 83.7821 185.847 84.0567V84.0567ZM209.434 75.6743C214.592 75.0037 217.558 77.7248 216.101 81.7355C214.644 85.7461 209.292 89.5634 204.146 90.234C199.001 90.9046 196.009 88.1835 197.479 84.1728C198.949 80.1621 204.288 76.3449 209.434 75.6743Z" fill="#3A3A3C"/>
<path d="M355.353 135.796C355.417 135.902 355.512 135.987 355.624 136.039C355.736 136.092 355.862 136.111 355.985 136.092L357.7 136.015L358.396 135.448C358.598 135.251 358.745 135.004 358.822 134.732C358.899 134.461 358.904 134.174 358.835 133.9C358.754 133.569 358.693 133.233 358.654 132.894C358.638 132.638 358.522 132.398 358.332 132.224C358.142 132.051 357.892 131.959 357.635 131.966L353.638 132.146C353.516 132.162 353.393 132.144 353.281 132.094C353.17 132.044 353.074 131.964 353.006 131.863L355.353 135.796ZM365.863 127.968C364.948 130.547 365.786 132.52 367.823 133.487C367.884 132.95 368.01 132.422 368.197 131.914C369.667 127.891 375.019 124.086 380.165 123.416C381.745 123.147 383.369 123.335 384.846 123.957C385.091 120.836 382.267 118.889 377.818 119.469C372.672 120.14 367.32 123.944 365.863 127.968ZM356.836 143.508C356.884 143.594 356.944 143.672 357.016 143.74L358.925 145.481C359.141 145.662 359.406 145.774 359.686 145.804C359.966 145.834 360.249 145.78 360.498 145.648L364.78 143.069C365.014 142.936 365.273 142.853 365.541 142.824V142.824C365.704 142.805 365.868 142.805 366.031 142.824L366.585 140.361C366.613 140.241 366.616 140.116 366.591 139.995C366.567 139.874 366.518 139.759 366.445 139.659C366.373 139.559 366.281 139.475 366.173 139.414C366.066 139.353 365.947 139.315 365.824 139.304C365.281 139.219 364.743 139.103 364.212 138.955C363.88 138.889 363.539 138.889 363.207 138.955C362.934 138.988 362.671 139.076 362.433 139.213L358.203 141.689C357.954 141.823 357.671 141.878 357.39 141.848C357.11 141.818 356.845 141.704 356.63 141.522L354.708 139.768C354.638 139.713 354.577 139.648 354.527 139.574L356.836 143.508ZM384.446 109.978C384.499 110.119 384.499 110.275 384.446 110.416L383.802 113.241C383.773 113.362 383.772 113.488 383.796 113.61C383.821 113.731 383.872 113.847 383.946 113.947C384.019 114.047 384.114 114.131 384.222 114.191C384.331 114.252 384.451 114.288 384.575 114.298C385.12 114.381 385.659 114.501 386.187 114.659C386.363 114.68 386.54 114.68 386.716 114.659L386.793 114.298C386.816 114.209 386.821 114.117 386.807 114.026C386.794 113.935 386.763 113.848 386.716 113.769V113.769L384.446 109.978ZM368.352 147.57C368.404 147.654 368.474 147.725 368.558 147.776C368.708 147.857 368.881 147.884 369.048 147.854L373.794 147.235H374.001H374.13C374.339 147.153 374.535 147.04 374.71 146.899L374.826 146.796C374.979 146.667 375.106 146.509 375.2 146.332L376.773 143.172C377.078 142.63 377.561 142.211 378.14 141.986C379.044 141.671 379.93 141.309 380.797 140.903C381.126 140.761 381.488 140.717 381.841 140.774C381.956 140.79 382.069 140.82 382.177 140.864H382.331C382.401 140.888 382.466 140.923 382.525 140.967L384.575 142.257L384.769 142.334H384.936H385.143C385.28 142.354 385.419 142.354 385.555 142.334C385.764 142.309 385.963 142.234 386.136 142.115L390.636 138.93C390.839 138.791 390.98 138.579 391.03 138.339C391.081 138.099 391.037 137.849 390.907 137.64L389.36 135.099C389.392 134.867 389.495 134.651 389.656 134.48C390.211 133.874 390.74 133.255 391.217 132.623C391.61 132.141 392.141 131.79 392.739 131.618L397.11 130.702C397.191 130.688 397.269 130.662 397.342 130.625L397.575 130.508C397.941 130.304 398.227 129.981 398.387 129.593L399.677 126.175C399.715 126.086 399.735 125.989 399.735 125.892C399.735 125.794 399.715 125.698 399.677 125.608L397.342 121.739C397.381 121.826 397.401 121.921 397.401 122.016C397.401 122.112 397.381 122.206 397.342 122.294L396.053 125.698C395.972 125.917 395.844 126.115 395.679 126.279C395.428 126.544 395.105 126.732 394.75 126.82L390.391 127.736C389.787 127.895 389.249 128.242 388.857 128.729C388.374 129.378 387.853 129.998 387.296 130.586C387.117 130.787 387.011 131.044 386.997 131.314C386.983 131.583 387.061 131.85 387.219 132.069L388.509 133.758C388.589 133.86 388.647 133.976 388.681 134.101C388.714 134.225 388.722 134.355 388.704 134.483C388.686 134.611 388.642 134.734 388.576 134.844C388.509 134.954 388.42 135.05 388.315 135.125L383.827 138.311C383.653 138.429 383.455 138.509 383.247 138.543C382.881 138.602 382.506 138.529 382.19 138.336L380.126 137.047C379.916 136.925 379.684 136.847 379.443 136.815C379.094 136.758 378.735 136.803 378.411 136.944C377.551 137.348 376.661 137.709 375.742 138.027C375.164 138.256 374.682 138.674 374.375 139.213L372.814 142.36C372.724 142.55 372.592 142.718 372.427 142.85C372.149 143.123 371.793 143.304 371.408 143.366L366.663 143.985C366.53 144.012 366.392 143.999 366.266 143.949C366.14 143.899 366.031 143.812 365.953 143.701L368.352 147.57ZM391.978 118.064C391.772 118.258 391.623 118.505 391.546 118.777C391.469 119.05 391.466 119.338 391.539 119.611C391.622 119.941 391.678 120.278 391.707 120.617C391.726 120.874 391.842 121.113 392.031 121.288C392.22 121.463 392.468 121.559 392.726 121.559L395.008 121.443L398.065 118.966C398.219 118.846 398.325 118.675 398.363 118.483C398.401 118.291 398.368 118.092 398.271 117.922V117.922L395.911 113.963C396.011 114.132 396.045 114.332 396.007 114.524C395.969 114.717 395.861 114.889 395.705 115.007L391.978 118.064Z" fill="#230D1E"/>
<path opacity="0.1" d="M355.353 135.796C355.417 135.902 355.512 135.987 355.624 136.039C355.736 136.092 355.862 136.111 355.985 136.092L357.7 136.015L358.396 135.448C358.598 135.251 358.745 135.004 358.822 134.732C358.899 134.461 358.904 134.174 358.835 133.9C358.754 133.569 358.693 133.233 358.654 132.894C358.638 132.638 358.522 132.398 358.332 132.224C358.142 132.051 357.892 131.959 357.635 131.966L353.638 132.146C353.516 132.162 353.393 132.144 353.281 132.094C353.17 132.044 353.074 131.964 353.006 131.863L355.353 135.796ZM365.863 127.968C364.948 130.547 365.786 132.52 367.823 133.487C367.884 132.95 368.01 132.422 368.197 131.914C369.667 127.891 375.019 124.086 380.165 123.416C381.745 123.147 383.369 123.335 384.846 123.957C385.091 120.836 382.267 118.889 377.818 119.469C372.672 120.14 367.32 123.944 365.863 127.968ZM356.836 143.508C356.884 143.594 356.944 143.672 357.016 143.74L358.925 145.481C359.141 145.662 359.406 145.774 359.686 145.804C359.966 145.834 360.249 145.78 360.498 145.648L364.78 143.069C365.014 142.936 365.273 142.853 365.541 142.824V142.824C365.704 142.805 365.868 142.805 366.031 142.824L366.585 140.361C366.613 140.241 366.616 140.116 366.591 139.995C366.567 139.874 366.518 139.759 366.445 139.659C366.373 139.559 366.281 139.475 366.173 139.414C366.066 139.353 365.947 139.315 365.824 139.304C365.281 139.219 364.743 139.103 364.212 138.955C363.88 138.889 363.539 138.889 363.207 138.955C362.934 138.988 362.671 139.076 362.433 139.213L358.203 141.689C357.954 141.823 357.671 141.878 357.39 141.848C357.11 141.818 356.845 141.704 356.63 141.522L354.708 139.768C354.638 139.713 354.577 139.648 354.527 139.574L356.836 143.508ZM384.446 109.978C384.499 110.119 384.499 110.275 384.446 110.416L383.802 113.241C383.773 113.362 383.772 113.488 383.796 113.61C383.821 113.731 383.872 113.847 383.946 113.947C384.019 114.047 384.114 114.131 384.222 114.191C384.331 114.252 384.451 114.288 384.575 114.298C385.12 114.381 385.659 114.501 386.187 114.659C386.363 114.68 386.54 114.68 386.716 114.659L386.793 114.298C386.816 114.209 386.821 114.117 386.807 114.026C386.794 113.935 386.763 113.848 386.716 113.769V113.769L384.446 109.978ZM368.352 147.57C368.404 147.654 368.474 147.725 368.558 147.776C368.708 147.857 368.881 147.884 369.048 147.854L373.794 147.235H374.001H374.13C374.339 147.153 374.535 147.04 374.71 146.899L374.826 146.796C374.979 146.667 375.106 146.509 375.2 146.332L376.773 143.172C377.078 142.63 377.561 142.211 378.14 141.986C379.044 141.671 379.93 141.309 380.797 140.903C381.126 140.761 381.488 140.717 381.841 140.774C381.956 140.79 382.069 140.82 382.177 140.864H382.331C382.401 140.888 382.466 140.923 382.525 140.967L384.575 142.257L384.769 142.334H384.936H385.143C385.28 142.354 385.419 142.354 385.555 142.334C385.764 142.309 385.963 142.234 386.136 142.115L390.636 138.93C390.839 138.791 390.98 138.579 391.03 138.339C391.081 138.099 391.037 137.849 390.907 137.64L389.36 135.099C389.392 134.867 389.495 134.651 389.656 134.48C390.211 133.874 390.74 133.255 391.217 132.623C391.61 132.141 392.141 131.79 392.739 131.618L397.11 130.702C397.191 130.688 397.269 130.662 397.342 130.625L397.575 130.508C397.941 130.304 398.227 129.981 398.387 129.593L399.677 126.175C399.715 126.086 399.735 125.989 399.735 125.892C399.735 125.794 399.715 125.698 399.677 125.608L397.342 121.739C397.381 121.826 397.401 121.921 397.401 122.016C397.401 122.112 397.381 122.206 397.342 122.294L396.053 125.698C395.972 125.917 395.844 126.115 395.679 126.279C395.428 126.544 395.105 126.732 394.75 126.82L390.391 127.736C389.787 127.895 389.249 128.242 388.857 128.729C388.374 129.378 387.853 129.998 387.296 130.586C387.117 130.787 387.011 131.044 386.997 131.314C386.983 131.583 387.061 131.85 387.219 132.069L388.509 133.758C388.589 133.86 388.647 133.976 388.681 134.101C388.714 134.225 388.722 134.355 388.704 134.483C388.686 134.611 388.642 134.734 388.576 134.844C388.509 134.954 388.42 135.05 388.315 135.125L383.827 138.311C383.653 138.429 383.455 138.509 383.247 138.543C382.881 138.602 382.506 138.529 382.19 138.336L380.126 137.047C379.916 136.925 379.684 136.847 379.443 136.815C379.094 136.758 378.735 136.803 378.411 136.944C377.551 137.348 376.661 137.709 375.742 138.027C375.164 138.256 374.682 138.674 374.375 139.213L372.814 142.36C372.724 142.55 372.592 142.718 372.427 142.85C372.149 143.123 371.793 143.304 371.408 143.366L366.663 143.985C366.53 144.012 366.392 143.999 366.266 143.949C366.14 143.899 366.031 143.812 365.953 143.701L368.352 147.57ZM391.978 118.064C391.772 118.258 391.623 118.505 391.546 118.777C391.469 119.05 391.466 119.338 391.539 119.611C391.622 119.941 391.678 120.278 391.707 120.617C391.726 120.874 391.842 121.113 392.031 121.288C392.22 121.463 392.468 121.559 392.726 121.559L395.008 121.443L398.065 118.966C398.219 118.846 398.325 118.675 398.363 118.483C398.401 118.291 398.368 118.092 398.271 117.922V117.922L395.911 113.963C396.011 114.132 396.045 114.332 396.007 114.524C395.969 114.717 395.861 114.889 395.705 115.007L391.978 118.064Z" fill="black"/>
<path d="M390.443 127.684L394.802 126.769C395.157 126.681 395.479 126.493 395.73 126.227L398.065 130.096C397.935 130.226 397.792 130.342 397.639 130.444L397.407 130.56C397.334 130.597 397.256 130.623 397.175 130.637L392.803 131.553L390.443 127.684Z" fill="#1C1C1E"/>
<path d="M379.469 136.737C379.709 136.769 379.942 136.848 380.152 136.969L382.215 138.259C382.532 138.451 382.907 138.524 383.273 138.465L385.607 142.399C385.47 142.418 385.331 142.418 385.194 142.399H384.988H384.82L384.627 142.321L382.576 141.032C382.518 140.987 382.452 140.953 382.383 140.928H382.228C382.118 140.895 382.006 140.869 381.893 140.851L379.469 136.737Z" fill="#1C1C1E"/>
<path d="M353.044 131.863C353.116 131.961 353.212 132.037 353.323 132.085C353.434 132.133 353.556 132.149 353.676 132.133L357.674 131.953C357.932 131.942 358.184 132.034 358.374 132.208C358.565 132.382 358.68 132.624 358.693 132.881C358.726 133.221 358.786 133.557 358.873 133.887C358.942 134.161 358.938 134.448 358.861 134.72C358.784 134.991 358.637 135.238 358.435 135.435L357.739 136.002L356.023 136.08C355.901 136.098 355.775 136.079 355.663 136.026C355.55 135.974 355.456 135.889 355.392 135.783V135.783L353.044 131.863Z" fill="#1C1C1E"/>
<path d="M354.463 139.574C354.513 139.648 354.574 139.713 354.644 139.768L356.565 141.522C356.78 141.704 357.045 141.818 357.326 141.848C357.607 141.878 357.89 141.823 358.138 141.689L362.407 139.046C362.645 138.908 362.908 138.821 363.181 138.788L365.515 142.747C365.247 142.775 364.988 142.859 364.754 142.992L360.473 145.571C360.223 145.703 359.941 145.757 359.66 145.727C359.38 145.697 359.115 145.584 358.899 145.403L356.991 143.662C356.919 143.595 356.858 143.517 356.81 143.43V143.43L354.463 139.574Z" fill="#1C1C1E"/>
<path d="M365.94 143.624C366.018 143.735 366.127 143.821 366.253 143.872C366.379 143.922 366.517 143.934 366.65 143.907L371.395 143.288C371.78 143.226 372.136 143.046 372.414 142.773L374.761 146.706L374.645 146.809C374.47 146.95 374.274 147.063 374.065 147.144H373.936H373.73L368.984 147.763C368.816 147.794 368.644 147.767 368.494 147.686C368.41 147.634 368.339 147.564 368.288 147.48L365.94 143.624Z" fill="#1C1C1E"/>
<path d="M354.231 127.852L353.044 131.231C352.994 131.332 352.974 131.445 352.984 131.557C352.995 131.67 353.037 131.777 353.105 131.867C353.174 131.956 353.266 132.025 353.371 132.066C353.477 132.106 353.591 132.116 353.702 132.095L357.7 131.914C357.958 131.904 358.209 131.995 358.4 132.169C358.591 132.343 358.705 132.585 358.719 132.843C358.752 133.182 358.812 133.519 358.899 133.848C358.968 134.122 358.964 134.409 358.887 134.681C358.81 134.952 358.663 135.199 358.461 135.396L354.708 138.452C354.611 138.53 354.533 138.628 354.479 138.739C354.426 138.851 354.398 138.973 354.398 139.097C354.398 139.221 354.426 139.343 354.479 139.455C354.533 139.567 354.611 139.665 354.708 139.742L356.63 141.483C356.844 141.667 357.11 141.78 357.392 141.808C357.673 141.836 357.956 141.776 358.203 141.638L362.471 139.059C363.02 138.776 363.654 138.707 364.251 138.865C364.777 139.011 365.311 139.127 365.85 139.213C365.974 139.223 366.095 139.259 366.203 139.32C366.312 139.381 366.406 139.464 366.48 139.564C366.553 139.665 366.604 139.78 366.629 139.902C366.654 140.024 366.652 140.15 366.624 140.271L365.979 143.095C365.943 143.205 365.937 143.323 365.962 143.435C365.987 143.548 366.042 143.653 366.121 143.737C366.201 143.821 366.301 143.883 366.412 143.915C366.523 143.947 366.641 143.949 366.753 143.92L371.499 143.301C371.792 143.25 372.07 143.134 372.313 142.963C372.556 142.791 372.758 142.567 372.904 142.308L374.465 139.136C374.777 138.603 375.258 138.19 375.832 137.962C376.735 137.653 377.624 137.279 378.501 136.879C378.776 136.765 379.074 136.715 379.371 136.733C379.668 136.751 379.957 136.836 380.216 136.982L382.28 138.272C382.527 138.421 382.81 138.5 383.099 138.5C383.387 138.5 383.67 138.421 383.918 138.272L388.405 135.087C388.51 135.013 388.598 134.918 388.665 134.809C388.732 134.7 388.776 134.578 388.794 134.451C388.812 134.324 388.804 134.195 388.77 134.072C388.737 133.948 388.679 133.833 388.599 133.732L387.309 132.03C387.152 131.811 387.073 131.545 387.087 131.275C387.101 131.005 387.207 130.749 387.387 130.547C387.943 129.959 388.464 129.339 388.947 128.69C389.336 128.2 389.875 127.851 390.482 127.697L394.905 126.769C395.19 126.69 395.454 126.549 395.678 126.354C395.901 126.16 396.078 125.918 396.195 125.647L397.484 122.242C397.538 122.14 397.562 122.026 397.553 121.911C397.544 121.797 397.502 121.687 397.433 121.595C397.364 121.503 397.271 121.433 397.163 121.392C397.056 121.351 396.939 121.342 396.827 121.365L392.842 121.559C392.582 121.563 392.331 121.467 392.139 121.292C391.947 121.117 391.83 120.876 391.81 120.617C391.781 120.278 391.725 119.941 391.642 119.611C391.568 119.338 391.57 119.049 391.647 118.777C391.724 118.504 391.874 118.258 392.081 118.064L395.821 115.007C395.917 114.93 395.996 114.832 396.049 114.72C396.103 114.609 396.131 114.486 396.131 114.363C396.131 114.239 396.103 114.116 396.049 114.005C395.996 113.893 395.917 113.795 395.821 113.718L393.899 111.964C393.684 111.782 393.418 111.669 393.137 111.642C392.856 111.614 392.573 111.672 392.326 111.809L387.941 114.466C387.396 114.745 386.765 114.809 386.174 114.646C385.645 114.499 385.107 114.387 384.562 114.311C384.439 114.297 384.319 114.258 384.212 114.196C384.104 114.133 384.011 114.049 383.938 113.948C383.865 113.847 383.814 113.732 383.788 113.61C383.763 113.488 383.763 113.362 383.789 113.241L384.433 110.416C384.468 110.308 384.474 110.192 384.449 110.08C384.425 109.969 384.371 109.866 384.294 109.782C384.216 109.698 384.118 109.636 384.009 109.602C383.9 109.569 383.784 109.565 383.673 109.591L378.927 110.21C378.632 110.265 378.352 110.384 378.107 110.557C377.862 110.731 377.658 110.956 377.508 111.216L375.948 114.375C375.639 114.91 375.157 115.324 374.581 115.549C373.678 115.871 372.788 116.232 371.924 116.632C371.647 116.747 371.348 116.797 371.048 116.779C370.749 116.761 370.458 116.676 370.196 116.529L368.146 115.239C367.899 115.09 367.615 115.012 367.327 115.012C367.038 115.012 366.755 115.09 366.508 115.239L362.072 118.425C361.969 118.5 361.882 118.595 361.816 118.704C361.75 118.813 361.707 118.935 361.689 119.061C361.671 119.187 361.679 119.316 361.711 119.439C361.744 119.562 361.8 119.678 361.878 119.779L363.168 121.468C363.328 121.686 363.408 121.953 363.394 122.224C363.379 122.494 363.272 122.751 363.09 122.951C362.535 123.544 362.014 124.168 361.53 124.821C361.136 125.3 360.605 125.647 360.008 125.814L355.585 126.743C355.289 126.811 355.013 126.947 354.778 127.139C354.543 127.331 354.356 127.575 354.231 127.852V127.852ZM377.818 119.469C382.976 118.799 385.955 121.52 384.498 125.543C383.041 129.567 377.676 133.358 372.53 134.029C367.385 134.7 364.406 131.979 365.863 127.968C367.32 123.957 372.672 120.14 377.818 119.469V119.469Z" fill="#3A3A3C"/>
<path d="M368.842 36.4831C368.842 36.4831 372.376 28.7454 372.634 27.5332C372.892 26.3209 371.615 21.4849 371.473 20.5822C371.331 19.6795 375.522 18.6349 377.418 21.6526C379.166 24.2567 379.938 27.3944 379.597 30.5122L389.979 28.7712C390.821 28.6571 391.675 28.8803 392.353 29.3923C393.032 29.9044 393.481 30.6637 393.603 31.5052C393.712 32.1108 393.663 32.7345 393.46 33.3154C393.256 33.8963 392.905 34.4145 392.442 34.8195C393.101 34.8918 393.716 35.1868 394.185 35.6557C394.654 36.1246 394.949 36.7395 395.021 37.3987C395.135 38.1302 395 38.8788 394.638 39.5243C394.275 40.1698 393.706 40.6748 393.022 40.958C393.635 41.6028 394.016 42.433 394.106 43.318C394.132 44.0785 393.916 44.8277 393.49 45.4579C393.064 46.0882 392.448 46.5671 391.733 46.8257C392.156 47.5212 392.44 48.2919 392.571 49.0954C392.636 50.0377 392.332 50.9684 391.723 51.6905C391.114 52.4125 390.248 52.8694 389.308 52.9642L372.144 55.853L368.842 36.4831Z" fill="#1C1C1E"/>
<path d="M358.796 37.5921L362.665 60.1731L370.145 58.8835L366.34 36.3025L358.796 37.5921ZM364.341 55.8916C364.339 55.5779 364.429 55.2705 364.602 55.0083C364.774 54.746 365.02 54.5407 365.309 54.4183C365.598 54.2959 365.916 54.2619 366.224 54.3206C366.533 54.3793 366.816 54.5281 367.04 54.7481C367.264 54.9681 367.417 55.2495 367.481 55.5567C367.545 55.8639 367.516 56.183 367.398 56.4739C367.28 56.7647 367.079 57.014 366.82 57.1904C366.56 57.3669 366.254 57.4624 365.941 57.465C365.732 57.4667 365.526 57.4273 365.333 57.3492C365.139 57.271 364.964 57.1556 364.815 57.0095C364.667 56.8634 364.548 56.6895 364.467 56.4977C364.386 56.3059 364.343 56.0999 364.341 55.8916V55.8916Z" fill="#1C1C1E"/>
</svg>
