<svg width="53" height="35" viewBox="0 0 53 35" fill="none" xmlns="http://www.w3.org/2000/svg">
<path d="M0 32.0833C0 33.6942 1.30584 35 2.91667 35H32.4167C34.0275 35 35.3333 33.6942 35.3333 32.0833C35.3333 30.4725 34.0275 29.1667 32.4167 29.1667H2.91667C1.30583 29.1667 0 30.4725 0 32.0833ZM2.91667 0C1.30584 0 0 1.30584 0 2.91667C0 4.5275 1.30584 5.83333 2.91667 5.83333H50.0833C51.6942 5.83333 53 4.5275 53 2.91667C53 1.30584 51.6942 0 50.0833 0H2.91667ZM0 17.5C0 19.1108 1.30584 20.4167 2.91667 20.4167H50.0833C51.6942 20.4167 53 19.1108 53 17.5C53 15.8892 51.6942 14.5833 50.0833 14.5833H2.91667C1.30584 14.5833 0 15.8892 0 17.5Z" fill="#BA68C8"/>
</svg>
